<svg width="20" height="20" viewBox="0 0 20 20" fill="none" xmlns="http://www.w3.org/2000/svg">
<path d="M4.82813 6.33332H4.35258C4.12165 6.33258 3.89896 6.41902 3.72901 6.57538C3.55906 6.73173 3.45439 6.94646 3.43591 7.17665L2.65675 17.26C2.6466 17.3864 2.66279 17.5135 2.70429 17.6333C2.7458 17.7532 2.81171 17.8631 2.89786 17.9561C2.98401 18.0492 3.08854 18.1233 3.20482 18.1739C3.3211 18.2245 3.44661 18.2504 3.57341 18.25H16.4267C16.5536 18.2504 16.6791 18.2245 16.7953 18.1739C16.9116 18.1233 17.0161 18.0492 17.1023 17.9561C17.1885 17.8631 17.2544 17.7532 17.2959 17.6333C17.3374 17.5135 17.3536 17.3864 17.3434 17.26L16.5642 7.17665C16.5458 6.94646 16.4411 6.73173 16.2712 6.57538C16.1012 6.41902 15.8785 6.33258 15.6476 6.33332H9.83267" stroke="currentColor" stroke-width="1.5" stroke-linecap="round"/>
<path d="M7.30957 13.2238V3.71665C7.30957 3.02898 7.59283 2.36948 8.09705 1.88322C8.60126 1.39697 9.28512 1.12379 9.99818 1.12379C10.7112 1.12379 11.3951 1.39697 11.8993 1.88322C12.4035 2.36948 12.6868 3.02898 12.6868 3.71665" stroke="currentColor" stroke-width="1.5" stroke-linecap="round"/>
</svg>
