<svg width="15" height="10" viewBox="0 0 15 10" fill="none" xmlns="http://www.w3.org/2000/svg">
<path d="M8.62454 5.00305C8.62454 5.59478 8.12106 6.07448 7.49999 6.07448C6.87891 6.07448 6.37543 5.59478 6.37543 5.00305C6.37543 4.41131 6.87891 3.93162 7.49999 3.93162C8.12106 3.93162 8.62454 4.41131 8.62454 5.00305Z" fill="currentColor"/>
<path fill-rule="evenodd" clip-rule="evenodd" d="M7.29758 0.0030472C11.7808 -0.125524 14.4198 3.85305 14.8996 4.6459C15.0335 4.86691 15.0335 5.13919 14.8996 5.36019C14.2548 6.43162 11.8483 9.90305 7.70242 10.003H7.51499C3.09925 10.003 0.572753 6.13876 0.100441 5.36019C-0.0334803 5.13919 -0.0334803 4.86691 0.100441 4.6459C0.752682 3.57448 3.15173 0.103047 7.29758 0.0030472ZM4.87604 5.00305C4.87604 6.38376 6.05083 7.50305 7.5 7.50305C8.94917 7.50305 10.124 6.38376 10.124 5.00305C10.124 3.62234 8.94917 2.50305 7.5 2.50305C6.05083 2.50305 4.87604 3.62234 4.87604 5.00305Z" fill="currentColor"/>
</svg>
