<svg width="15" height="15" viewBox="0 0 15 15" fill="none" xmlns="http://www.w3.org/2000/svg">
<path d="M1.70455 15C1.2358 15 0.834659 14.8369 0.501136 14.5108C0.167614 14.1847 0.000568182 13.7922 0 13.3333V1.66667C0 1.20833 0.167045 0.816111 0.501136 0.49C0.835227 0.163889 1.23636 0.000555555 1.70455 0H6.81818C7.05966 0 7.26222 0.08 7.42585 0.24C7.58949 0.4 7.67102 0.597777 7.67045 0.833333C7.66989 1.06889 7.58807 1.26694 7.425 1.4275C7.26193 1.58805 7.05966 1.66778 6.81818 1.66667H1.70455V13.3333H6.81818C7.05966 13.3333 7.26222 13.4133 7.42585 13.5733C7.58949 13.7333 7.67102 13.9311 7.67045 14.1667C7.66989 14.4022 7.58807 14.6003 7.425 14.7608C7.26193 14.9214 7.05966 15.0011 6.81818 15H1.70455ZM12.081 8.33333H5.96591C5.72443 8.33333 5.52216 8.25333 5.35909 8.09333C5.19602 7.93333 5.1142 7.73555 5.11364 7.49999C5.11307 7.26444 5.19489 7.06666 5.35909 6.90666C5.5233 6.74666 5.72557 6.66666 5.96591 6.66666H12.081L10.483 5.10416C10.3267 4.95139 10.2486 4.76389 10.2486 4.54166C10.2486 4.31944 10.3267 4.125 10.483 3.95833C10.6392 3.79166 10.8381 3.70472 11.0795 3.6975C11.321 3.69027 11.527 3.77027 11.6974 3.9375L14.7443 6.91666C14.9148 7.08333 15 7.27777 15 7.49999C15 7.72222 14.9148 7.91666 14.7443 8.08333L11.6974 11.0625C11.527 11.2292 11.3247 11.3092 11.0906 11.3025C10.8565 11.2958 10.654 11.2089 10.483 11.0417C10.3267 10.875 10.2523 10.6772 10.2597 10.4483C10.267 10.2194 10.3486 10.0283 10.5043 9.87499L12.081 8.33333Z" fill="currentColor"/>
</svg>
