<svg width="30" height="30" viewBox="0 0 30 30" fill="none" xmlns="http://www.w3.org/2000/svg">
<path d="M8.62179 28.0265C9.12375 28.0265 9.47572 27.7758 10.0655 27.2229L14.6105 23.0797L23.0855 23.092C26.8275 23.1049 28.8364 21.0204 28.8364 17.3417V7.72399C28.8364 4.04524 26.8275 1.97363 23.0861 1.97363H6.91393C3.18536 1.97363 1.16357 4.03238 1.16357 7.72399V17.3417C1.16357 21.0327 3.18482 23.092 6.91393 23.0797H7.50429V26.7333C7.50429 27.5117 7.9184 28.0265 8.62179 28.0265ZM8.93572 11.7542C8.93572 10.2354 10.1036 9.1806 11.6223 9.1806C13.2798 9.1806 14.3973 10.4985 14.3973 12.2192C14.3973 15.4458 11.8232 16.9774 10.53 16.9774C10.1657 16.9774 9.90215 16.7138 9.90215 16.3876C9.90215 16.086 10.0404 15.8851 10.5177 15.7474C11.3464 15.5213 12.3129 14.8683 12.7779 13.8263H12.6771C12.338 14.2404 11.8232 14.3283 11.2838 14.3283C9.85232 14.3283 8.93572 13.1979 8.93572 11.7542ZM15.7913 11.7542C15.7913 10.2354 16.9591 9.1806 18.4779 9.1806C20.1354 9.1806 21.2529 10.4985 21.2529 12.2192C21.2529 15.4458 18.6788 16.9774 17.3855 16.9774C17.0213 16.9774 16.7577 16.7138 16.7577 16.3876C16.7577 16.086 16.8959 15.8851 17.3732 15.7474C18.202 15.5213 19.1684 14.8683 19.6329 13.8263H19.5327C19.1936 14.2404 18.6788 14.3283 18.1388 14.3283C16.7079 14.3283 15.7913 13.1979 15.7913 11.7542Z" fill="currentColor"/>
</svg>
