<svg width="20" height="20" viewBox="0 0 20 20" fill="none" xmlns="http://www.w3.org/2000/svg">
<path d="M14.407 17.4706C14.4642 17.4745 14.5253 17.4745 14.5825 17.4745C15.1779 17.4745 15.6321 17.2802 16.0175 16.8689C16.2541 16.5909 17.2197 15.6425 17.2197 15.6425C17.2197 15.6425 17.609 14.8389 17.2159 14.4504L15.113 12.3519C15.1092 12.3481 15.1092 12.3481 15.1054 12.3442C14.9871 12.2148 14.7924 12.0662 14.5558 12.0662C14.3154 12.0662 14.1093 12.2224 13.9795 12.3519L13.2315 13.0984C13.1666 13.1632 12.9681 13.3612 12.6514 13.3612C12.5254 13.3612 12.4033 13.3307 12.2736 13.266C12.2583 13.2584 12.243 13.2469 12.2278 13.2393C12.1171 13.1708 11.9873 13.106 11.8499 13.0375C11.6973 12.9613 11.537 12.8813 11.3805 12.7823C10.1554 12.0091 9.04487 10.9999 7.99154 9.70493L7.98772 9.70112C7.40763 8.96605 7.02599 8.34906 6.75502 7.69398C6.75121 7.68255 6.74739 7.67113 6.74357 7.6597C6.67488 7.44261 6.61382 7.12268 6.94203 6.79514C6.94584 6.78753 6.95348 6.78372 6.96111 6.7761C7.29314 6.47903 7.0413 6.73035 7.36188 6.40281C7.47256 6.29617 7.57942 6.18572 7.6901 6.07527C8.09464 5.67155 8.09464 5.29831 7.6901 4.89459L6.64821 3.85484C6.52609 3.72916 6.40396 3.60728 6.28565 3.48541C6.05285 3.24546 5.8315 3.02076 5.5987 2.80366C5.59488 2.79986 5.59107 2.79605 5.58725 2.79224C5.46513 2.67036 5.27049 2.52563 5.03005 2.52563C4.83542 2.52563 4.63696 2.62085 4.44996 2.79605L3.14856 4.09479C2.8318 4.4109 2.66006 4.78034 2.6219 5.22594C2.56465 5.92292 2.69441 6.66179 3.04933 7.61014C3.62561 9.16405 4.49576 10.6113 5.79715 12.1767C6.86094 13.4439 8.07075 14.5307 9.40898 15.4243" stroke="currentColor" stroke-width="1.5" stroke-linecap="round" stroke-linejoin="round"/>
</svg>
