<svg width="30" height="30" viewBox="0 0 30 30" fill="none" xmlns="http://www.w3.org/2000/svg">
<path d="M10.3033 9.17442L2.32834 10.3307L2.18709 10.3594C1.97326 10.4162 1.77833 10.5287 1.6222 10.6854C1.46607 10.8422 1.35434 11.0375 1.29841 11.2516C1.24249 11.4656 1.24437 11.6907 1.30387 11.9038C1.36337 12.1168 1.47836 12.3103 1.63709 12.4644L7.41459 18.0882L6.05209 26.0319L6.03584 26.1694C6.02275 26.3906 6.06867 26.6112 6.1689 26.8088C6.26913 27.0064 6.42007 27.1737 6.60626 27.2938C6.79245 27.4139 7.0072 27.4823 7.22852 27.4921C7.44985 27.5018 7.66979 27.4526 7.86584 27.3494L14.9983 23.5994L22.1146 27.3494L22.2396 27.4069C22.4459 27.4882 22.6702 27.5131 22.8893 27.4791C23.1084 27.4451 23.3146 27.3535 23.4866 27.2135C23.6586 27.0735 23.7903 26.8904 23.8681 26.6827C23.946 26.4751 23.9672 26.2505 23.9296 26.0319L22.5658 18.0882L28.3458 12.4632L28.4433 12.3569C28.5826 12.1854 28.6739 11.98 28.708 11.7617C28.742 11.5433 28.7176 11.3199 28.6372 11.1141C28.5568 10.9083 28.4233 10.7275 28.2502 10.5901C28.0772 10.4527 27.8708 10.3636 27.6521 10.3319L19.6771 9.17442L16.1121 1.94941C16.0089 1.74008 15.8492 1.56381 15.6511 1.44055C15.4529 1.31728 15.2242 1.25195 14.9908 1.25195C14.7575 1.25195 14.5288 1.31728 14.3306 1.44055C14.1324 1.56381 13.9727 1.74008 13.8696 1.94941L10.3033 9.17442Z" fill="currentColor"/>
</svg>
