<svg width="30" height="30" viewBox="0 0 30 30" fill="none" xmlns="http://www.w3.org/2000/svg">
<path d="M10.411 9.91665L10.8013 9.86006L10.9759 9.50638L14.5421 2.28138L14.5423 2.28094C14.5836 2.19721 14.6475 2.1267 14.7267 2.07739C14.806 2.02808 14.8975 2.00195 14.9908 2.00195C15.0842 2.00195 15.1757 2.02808 15.2549 2.07739C15.3342 2.1267 15.3981 2.19721 15.4393 2.28094L15.4395 2.28128L19.0045 9.50628L19.179 9.85999L19.5694 9.91664L27.5444 11.0741L27.5446 11.0742C27.6321 11.0868 27.7146 11.1225 27.7838 11.1774C27.8531 11.2324 27.9065 11.3047 27.9386 11.387C27.9708 11.4694 27.9806 11.5587 27.967 11.6461C27.9542 11.7276 27.9216 11.8046 27.8719 11.8703L27.8076 11.9404L22.0428 17.5507L21.7599 17.826L21.8267 18.2151L23.1904 26.1588L23.1905 26.1591C23.2055 26.2465 23.197 26.3364 23.1659 26.4194C23.1347 26.5025 23.0821 26.5757 23.0133 26.6317C22.9444 26.6877 22.862 26.7244 22.7743 26.738C22.692 26.7507 22.6079 26.7427 22.5297 26.7148L22.4464 26.6765L15.348 22.9359L14.9987 22.7519L14.6493 22.9356L7.51682 26.6856L7.51653 26.6857C7.43811 26.727 7.35013 26.7467 7.2616 26.7428C7.17307 26.7389 7.08717 26.7115 7.01269 26.6635C6.93822 26.6155 6.87784 26.5485 6.83775 26.4695C6.80023 26.3955 6.78173 26.3135 6.78381 26.2307L6.7946 26.1394L8.15379 18.215L8.22051 17.826L7.93772 17.5507L2.16022 11.927L2.15952 11.9263C2.09603 11.8647 2.05004 11.7873 2.02624 11.702C2.00244 11.6168 2.00168 11.5268 2.02405 11.4412C2.04642 11.3556 2.09112 11.2774 2.15357 11.2147L1.62444 10.6876L2.15357 11.2147C2.212 11.156 2.28402 11.1129 2.3631 11.089L2.45705 11.0698L10.411 9.91665Z" fill="url(#linearGradient)" stroke="currentColor" stroke-width="1.5"/>
<defs>
<linearGradient id="linearGradient" x1="1.25781" y1="14.3729" x2="28.7229" y2="14.3729" gradientUnits="userSpaceOnUse">
<stop offset="0.5"/>
<stop offset="0.5" stop-color="white"/>
</linearGradient>
</defs>
</svg>
