<svg width="20" height="20" viewBox="0 0 20 20" fill="none" xmlns="http://www.w3.org/2000/svg">
<path d="M9.81707 17.1341C5.77596 17.1341 2.5 13.8582 2.5 9.81707C2.5 5.77596 5.77596 2.5 9.81707 2.5C12.8878 2.5 15.5168 4.39162 16.6023 7.07317M3.41463 12.561H5.54878C6.39068 12.561 7.07317 11.8785 7.07317 11.0366V9.05488C7.07317 8.21298 7.75566 7.53049 8.59756 7.53049H10.122C10.9638 7.53049 11.6463 6.84799 11.6463 6.0061V3.41463M14.5732 12.7439V12.6889M17.5 12.6803C17.5 14.5891 14.5732 17.1341 14.5732 17.1341C14.5732 17.1341 11.6463 14.5891 11.6463 12.6803C11.6463 11.099 12.9567 9.81707 14.5732 9.81707C16.1896 9.81707 17.5 11.099 17.5 12.6803Z" stroke="currentColor" stroke-width="1.5" stroke-linecap="round" stroke-linejoin="round"/>
</svg>
