<svg width="71" height="50" viewBox="0 0 71 50" fill="none" xmlns="http://www.w3.org/2000/svg">
<path d="M28.2828 34.2064L47.528 24.2855L28.2828 14.248V34.2064ZM35.6418 0.000130209C40.0967 0.000130209 44.3991 0.0598525 48.5492 0.179297C52.6992 0.298741 55.7417 0.424436 57.6768 0.55638L60.5795 0.723047C60.6059 0.723047 60.8287 0.743186 61.2477 0.783464C61.5965 0.810547 61.9097 0.852214 62.2188 0.910547L62.1645 0.902214C62.351 0.942491 62.6628 1.00221 63.1 1.08138C63.5281 1.1543 63.9102 1.26471 64.2715 1.41055L64.2339 1.39805C64.5527 1.52999 64.9244 1.70221 65.349 1.91471C65.8189 2.15221 66.224 2.41055 66.5999 2.70013L66.5832 2.68763C67.0071 3.0168 67.3829 3.36055 67.7296 3.73346L67.7359 3.73971C67.9503 3.96333 68.1507 4.20083 68.3373 4.45221L68.3519 4.47305C68.7737 5.13555 69.1621 5.90221 69.4733 6.7043L69.5046 6.79596C70.0058 7.96055 70.3754 9.31055 70.5508 10.723L70.5592 10.796C70.7708 12.489 70.9378 14.2946 71.0603 16.2126C71.1828 18.1307 71.2559 19.6307 71.2796 20.7126V27.696L71.2817 28.2439C71.2817 32.1043 71.0207 35.9064 70.5153 39.6293L70.5633 39.196C70.398 40.5873 70.0483 41.9506 69.5234 43.2501L69.561 43.1439C69.2472 44.0238 68.8114 44.8555 68.2663 45.6147L68.2872 45.5835L67.7317 46.2501C67.3834 46.6255 67.0048 46.9718 66.5999 47.2855L66.579 47.3022C66.2104 47.5911 65.8104 47.8378 65.3866 48.0376L65.3469 48.0543C64.9223 48.2529 64.5506 48.4196 64.2318 48.5543C63.877 48.6968 63.5082 48.8016 63.1313 48.8668L63.0979 48.871C62.6608 48.9501 62.3427 49.0099 62.1436 49.0501C61.9445 49.0904 61.6396 49.13 61.2289 49.1689C60.8182 49.2078 60.5997 49.2279 60.5732 49.2293C53.9257 49.746 45.6166 50.0043 35.646 50.0043C30.1567 49.9515 25.3899 49.8654 21.3457 49.746C17.3015 49.6265 14.6432 49.5272 13.3708 49.4481L11.4203 49.2814L9.98781 49.1147C9.21263 49.0209 8.44406 48.8789 7.68658 48.6897L7.81605 48.7168C7.09313 48.4923 6.3921 48.203 5.72155 47.8522L5.78837 47.8835C4.95027 47.4775 4.19038 46.9274 3.54352 46.2585L3.54143 46.2564C3.3278 46.0303 3.12702 45.7924 2.94002 45.5439L2.9254 45.523C2.47792 44.8185 2.10226 44.071 1.80402 43.2918L1.77269 43.2001C1.24197 41.9462 0.889819 40.6244 0.726488 39.273L0.718135 39.2001C0.506527 37.5071 0.339468 35.7015 0.216958 33.7835C0.0944486 31.8654 0.0213604 30.3654 -0.0023063 29.2835V22.3001L-0.00439453 21.7522C-0.00439453 17.8918 0.256635 14.0897 0.761988 10.3668L0.713958 10.8001C0.879281 9.40879 1.22898 8.0455 1.7539 6.74596L1.71631 6.85221C2.05461 5.92096 2.48478 5.11471 3.01102 4.38138L2.99013 4.41263L3.5456 3.74596C3.89782 3.36819 4.2751 3.02305 4.67743 2.71055L4.69831 2.69388C5.05749 2.41471 5.46052 2.15846 5.88861 1.93971L5.93246 1.91888C6.35707 1.70777 6.72877 1.53555 7.04758 1.40221C7.40235 1.25967 7.77123 1.15492 8.14808 1.08971L8.18149 1.08555C8.61862 1.00638 8.93047 0.946658 9.11702 0.90638C9.36969 0.85638 9.68293 0.814714 10.0024 0.789714L10.0338 0.78763C10.4584 0.747352 10.6811 0.727214 10.702 0.727214C17.3607 0.241102 25.676 -0.00195312 35.648 -0.00195312L35.6418 0.000130209Z" fill="currentColor"/>
</svg>
