<svg width="20" height="20" viewBox="0 0 20 20" fill="none" xmlns="http://www.w3.org/2000/svg">
<path d="M17.0976 2.894C15.2297 1.03989 12.7008 -0.000763921 10.0647 4.2075e-07C4.58089 4.2075e-07 0.0983196 4.437 0.0983196 9.904C0.0983196 11.672 0.549787 13.344 1.42062 14.887L0 20L5.3233 18.65C6.77502 19.421 8.42037 19.871 10.0978 19.871C15.5495 19.839 20 15.401 20 9.904C20 7.267 18.9686 4.791 17.0976 2.894ZM10.0326 18.167C8.54187 18.1593 7.08126 17.748 5.80687 16.977L5.48382 16.785L2.35465 17.588L3.22649 14.566L3.03286 14.244C2.21828 12.9178 1.78289 11.3949 1.77376 9.84C1.77376 5.306 5.45072 1.64 10.0316 1.64C12.2257 1.64 14.2904 2.509 15.8385 4.052C16.6089 4.8203 17.2193 5.73285 17.6346 6.73717C18.0499 7.74148 18.2619 8.81773 18.2583 9.904C18.3225 14.503 14.5804 18.168 10.0316 18.168M14.5804 11.995C14.3225 11.866 13.1287 11.255 12.8387 11.223C12.613 11.126 12.4194 11.094 12.2899 11.352C12.1605 11.609 11.6448 12.123 11.5154 12.316C11.387 12.445 11.2576 12.509 10.9676 12.348C10.7088 12.22 9.93429 11.995 8.96714 11.094C8.22473 10.451 7.70905 9.647 7.61274 9.358C7.48332 9.101 7.57963 9.004 7.74116 8.843C7.87058 8.715 8 8.586 8.09631 8.393C8.22573 8.265 8.22573 8.136 8.35415 7.975C8.48357 7.847 8.38626 7.654 8.32205 7.525C8.22573 7.397 7.77326 6.175 7.54753 5.66C7.3539 5.146 7.12817 5.242 6.99975 5.242H6.54828C6.41786 5.242 6.09681 5.274 5.90218 5.564C5.67645 5.821 5.03135 6.432 5.03135 7.654C5.03135 8.876 5.90218 10.001 6.06471 10.226C6.19313 10.355 7.83848 12.895 10.2904 13.988C10.8703 14.245 11.3218 14.406 11.7091 14.535C12.2899 14.728 12.8387 14.663 13.2581 14.631C13.7417 14.599 14.7098 14.052 14.9355 13.441C15.1292 12.895 15.1292 12.348 15.064 12.251C14.9998 12.188 14.8061 12.091 14.5804 11.995Z" fill="currentColor"/>
</svg>
