<svg width="46" height="10" viewBox="0 0 46 10" fill="none" xmlns="http://www.w3.org/2000/svg">
<g clip-path="url(#clip0_4111_5211)">
<path d="M20.6476 8.85961H22.2635V5.51643C22.2635 3.75036 21.137 2.81276 19.7815 2.81276C18.8844 2.81276 18.2066 3.20197 17.7184 3.7408H17.4991C17.1307 3.26159 16.4929 2.81276 15.5463 2.81276C14.6874 2.81276 14.0012 3.19185 13.6424 3.63112H13.423V2.98262H11.9179V8.85961H13.5237V5.78641C13.5237 4.73801 13.8331 4.37917 14.909 4.37917C15.985 4.37917 16.2836 4.73801 16.2836 5.78641V8.85905H17.9001V5.78641C17.9001 4.73801 18.1988 4.37917 19.2753 4.37917C20.3524 4.37917 20.6505 4.73801 20.6505 5.78641L20.6482 8.85905L20.6476 8.85961ZM5.48074 8.01819C5.19221 7.80896 5.06228 7.49962 5.06228 7.0311C5.06228 6.44222 5.24226 5.71667 5.54092 5.40451C5.75015 5.19472 6.04881 5.09516 6.45771 5.09516C7.0359 5.09516 7.74346 5.24702 8.04212 5.55412C8.24178 5.75379 8.33178 6.03276 8.33178 6.42197C8.33178 6.98104 8.17204 7.76903 7.82276 8.09806C7.62366 8.27804 7.35481 8.35735 6.97628 8.35735C6.45883 8.35735 5.80865 8.23698 5.48074 8.01819ZM8.02299 9.25557L7.95269 9.79439L9.45667 9.98L10.1693 4.157L8.66587 3.97196L8.59556 4.53666H8.42177C8.19679 4.13788 7.59385 3.5985 6.45771 3.5985C4.8733 3.5985 3.70735 4.76613 3.49756 6.36179C3.47812 6.51759 3.46817 6.67443 3.46775 6.83143C3.46775 8.35735 4.50434 9.61497 6.11855 9.79439C6.20854 9.80283 6.29797 9.80564 6.38796 9.80452C7.06571 9.80452 7.57416 9.51542 7.83345 9.25613H8.02243L8.02299 9.25557ZM42.0453 7.53224C40.8394 7.53224 40.4406 7.13346 40.4406 5.92646C40.4406 4.71889 40.84 4.3083 42.0453 4.3083C43.2512 4.3083 43.65 4.7172 43.65 5.92646C43.65 7.13515 43.2512 7.53224 42.0453 7.53224ZM34.3117 7.53224C33.1052 7.53224 32.707 7.13346 32.707 5.92646C32.707 4.71889 33.1052 4.3083 34.3111 4.3083C35.517 4.3083 35.9163 4.7172 35.9163 5.92646C35.9163 7.13515 35.517 7.53224 34.3111 7.53224H34.3117ZM26.7766 7.53224C25.5713 7.53224 25.1725 7.13346 25.1725 5.92646C25.1725 4.71889 25.5713 4.3083 26.7766 4.3083C27.9819 4.3083 28.3818 4.7172 28.3818 5.92646C28.3818 7.13515 27.9825 7.53224 26.7766 7.53224ZM1.22978 1L0.25 8.8478L1.84959 9.04297L2.81363 1.19461L1.22978 1ZM43.7197 8.29098V8.85905H45.2242V2.98318H43.7197V3.55238H43.5004C43.2608 3.23291 42.6533 2.81389 41.8338 2.81389C40.0396 2.81389 38.8146 4.17894 38.8146 5.92702C38.8146 7.67454 40.0402 9.03003 41.8338 9.03003C42.6516 9.03003 43.2591 8.61101 43.5004 8.29154L43.7197 8.29098ZM26.7766 2.81332C24.7833 2.81332 23.5482 4.17838 23.5482 5.92646C23.5482 7.67397 24.7833 9.02947 26.7766 9.02947C28.7699 9.02947 30.009 7.67229 30.009 5.92646C30.009 4.18006 28.7727 2.81332 26.7766 2.81332ZM36.0058 8.29098V8.85905H37.5103V1.06749H35.9163V3.55181H35.697C35.4579 3.23234 34.9191 2.81332 34.1025 2.81332C32.3083 2.81332 31.0821 4.17838 31.0821 5.92646C31.0821 7.67397 32.3083 9.02947 34.1025 9.02947C34.9191 9.02947 35.5569 8.61045 35.7864 8.29098H36.0058Z" fill="black"/>
</g>
<defs>
<clipPath id="clip0_4111_5211">
<rect width="45" height="10" fill="white" transform="translate(0.25)"/>
</clipPath>
</defs>
</svg>
