<svg width="197" height="20" viewBox="0 0 197 20" fill="none" xmlns="http://www.w3.org/2000/svg">
<path d="M189.209 12.7429V20H182.244V12.6571L174.453 0H181.801L186.022 6.91429L190.271 0H197L189.209 12.7429Z" fill="black"/>
<path d="M161.705 14.9143V20H144.529V0H161.321V5.08571H151.375V7.42857H160.111V12.2857H151.375V14.9143H161.705Z" fill="black"/>
<path d="M118.702 14.9714H116.813V20H109.848V0H119.794C121.702 0 123.365 0.304762 124.782 0.914286C126.198 1.52381 127.29 2.4 128.057 3.54286C128.825 4.68571 129.208 6.01905 129.208 7.54286C129.208 8.97143 128.874 10.219 128.205 11.2857C127.536 12.3524 126.572 13.2 125.313 13.8286L129.651 20H122.214L118.702 14.9714ZM122.184 7.54286C122.184 6.8 121.948 6.22857 121.476 5.82857C121.004 5.40952 120.296 5.2 119.351 5.2H116.813V9.88571H119.351C120.296 9.88571 121.004 9.68572 121.476 9.28572C121.948 8.86667 122.184 8.28571 122.184 7.54286Z" fill="black"/>
<path d="M84.0219 14.9714H82.1332V20H75.1683V0H85.1139C87.0223 0 88.6848 0.304762 90.1014 0.914286C91.518 1.52381 92.6099 2.4 93.3772 3.54286C94.1446 4.68571 94.5282 6.01905 94.5282 7.54286C94.5282 8.97143 94.1937 10.219 93.5248 11.2857C92.8559 12.3524 91.8918 13.2 90.6326 13.8286L94.9709 20H87.5339L84.0219 14.9714ZM87.5043 7.54286C87.5043 6.8 87.2682 6.22857 86.7961 5.82857C86.3239 5.40952 85.6156 5.2 84.6712 5.2H82.1332V9.88571H84.6712C85.6156 9.88571 86.3239 9.68572 86.7961 9.28572C87.2682 8.86667 87.5043 8.28571 87.5043 7.54286Z" fill="black"/>
<path d="M53.5835 16.5143H45.7332L44.3462 20H37.2633L46.294 0H53.1408L62.1715 20H54.9705L53.5835 16.5143ZM51.6652 11.6571L49.6584 6.62857L47.6515 11.6571H51.6652Z" fill="black"/>
<path d="M18.445 20L18.386 10.8857L13.9002 18.2H10.8309L6.34509 11.2V20H0V0H5.72534L12.4541 10.6571L19.0058 0H24.7311L24.7901 20H18.445Z" fill="black"/>
</svg>
