<svg width="38" height="8" viewBox="0 0 38 8" fill="none" xmlns="http://www.w3.org/2000/svg">
<path d="M23.2097 0C20.1042 0 17.5874 1.78864 17.5874 3.99756C17.5874 6.20647 20.1042 7.99511 23.2097 7.99511C26.3153 7.99511 28.832 6.20647 28.832 3.99756C28.832 1.78864 26.3153 0 23.2097 0ZM23.2097 6.13317C21.0658 6.13317 19.4615 5.00916 19.4615 4.00244C19.4615 2.99572 21.0658 1.87172 23.2097 1.87172C25.3537 1.87172 26.9579 2.99572 26.9579 4.00244C26.9579 5.00916 25.3586 6.13317 23.2097 6.13317Z" fill="#005BFF"/>
<path d="M4.76804 0C2.55051 0 0.754906 1.78864 0.75 3.99756C0.75 6.20647 2.54561 7.99511 4.76313 8C6.98065 8 8.77626 6.21136 8.78116 4.00244C8.78116 1.78864 6.98556 0 4.76804 0ZM6.90706 3.99756C6.90706 5.17532 5.95039 6.12828 4.76804 6.13317C3.58568 6.13317 2.6241 5.18021 2.6241 4.00244C2.6241 2.82468 3.58078 1.86683 4.76313 1.86683C5.94548 1.86683 6.90706 2.81979 6.90706 3.99756Z" fill="#005BFF"/>
<path d="M16.1205 5.95235H12.9365L16.9987 0.610874C17.1312 0.434942 17.0085 0.180819 16.7828 0.180819H10.9447C10.3658 0.180819 9.87025 0.708614 9.9929 1.30483C10.0812 1.74466 10.4933 2.04276 10.9447 2.04276H13.5596L9.49249 7.38913C9.36003 7.56506 9.48268 7.8143 9.70345 7.8143H16.0862C16.5375 7.8143 16.9496 7.51619 17.038 7.07636C17.1606 6.47526 16.6994 5.95235 16.1205 5.95235Z" fill="#005BFF"/>
<path d="M37.55 1.11423V7.5504C37.55 7.60904 37.5304 7.66768 37.4911 7.71655C37.3979 7.83384 37.2262 7.85339 37.1085 7.76054L32.0455 3.75809V6.88577C32.0455 7.41356 31.6089 7.83384 31.079 7.81918C30.5688 7.80452 30.1714 7.36958 30.1714 6.86133V0.449603C30.1714 0.386072 30.191 0.327428 30.2303 0.278558C30.3235 0.166158 30.4952 0.146609 30.608 0.239461L35.671 4.2419V1.13867C35.671 0.63042 36.0684 0.200366 36.5737 0.180819C37.1085 0.161271 37.55 0.586437 37.55 1.11423Z" fill="#005BFF"/>
</svg>
