<svg width="38" height="10" viewBox="0 0 38 10" fill="none" xmlns="http://www.w3.org/2000/svg">
<g id="OZ">
<g id="Ozon">
<path d="M23.2097 1C20.1042 1 17.5874 2.78864 17.5874 4.99756C17.5874 7.20647 20.1042 8.99511 23.2097 8.99511C26.3153 8.99511 28.832 7.20647 28.832 4.99756C28.832 2.78864 26.3153 1 23.2097 1ZM23.2097 7.13317C21.0658 7.13317 19.4615 6.00916 19.4615 5.00244C19.4615 3.99572 21.0658 2.87172 23.2097 2.87172C25.3537 2.87172 26.9579 3.99572 26.9579 5.00244C26.9579 6.00916 25.3586 7.13317 23.2097 7.13317Z" fill="#B3B3B3"/>
<path d="M4.76804 1C2.55051 1 0.754906 2.78864 0.75 4.99756C0.75 7.20647 2.54561 8.99511 4.76313 9C6.98065 9 8.77626 7.21136 8.78117 5.00244C8.78117 2.78864 6.98556 1 4.76804 1ZM6.90706 4.99756C6.90706 6.17532 5.95039 7.12828 4.76804 7.13317C3.58568 7.13317 2.6241 6.18021 2.6241 5.00244C2.6241 3.82468 3.58078 2.86683 4.76313 2.86683C5.94548 2.86683 6.90706 3.81979 6.90706 4.99756Z" fill="#B3B3B3"/>
<path d="M16.1205 6.95235H12.9365L16.9987 1.61087C17.1312 1.43494 17.0085 1.18082 16.7828 1.18082H10.9447C10.3658 1.18082 9.87025 1.70861 9.9929 2.30483C10.0812 2.74466 10.4933 3.04276 10.9447 3.04276H13.5596L9.49249 8.38913C9.36003 8.56506 9.48268 8.8143 9.70345 8.8143H16.0862C16.5375 8.8143 16.9496 8.51619 17.038 8.07636C17.1606 7.47526 16.6994 6.95235 16.1205 6.95235Z" fill="#B3B3B3"/>
<path d="M37.55 2.11423V8.5504C37.55 8.60904 37.5304 8.66769 37.4911 8.71655C37.3979 8.83384 37.2262 8.85339 37.1085 8.76054L32.0455 4.75809V7.88577C32.0455 8.41356 31.6089 8.83384 31.079 8.81918C30.5688 8.80452 30.1714 8.36958 30.1714 7.86133V1.4496C30.1714 1.38607 30.191 1.32743 30.2303 1.27856C30.3235 1.16616 30.4952 1.14661 30.608 1.23946L35.671 5.2419V2.13867C35.671 1.63042 36.0684 1.20037 36.5737 1.18082C37.1085 1.16127 37.55 1.58644 37.55 2.11423Z" fill="#B3B3B3"/>
</g>
</g>
</svg>
