<svg width="0" height="0" class="hidden">
  <symbol fill="none" xmlns="http://www.w3.org/2000/svg" viewBox="0 0 24 24" id="ic_actions">
    <circle cx="12" cy="18" r="2" fill="currentColor"></circle>
    <circle cx="12" cy="12" r="2" fill="currentColor"></circle>
    <circle cx="12" cy="6" r="2" fill="currentColor"></circle>
  </symbol>
  <symbol fill="none" xmlns="http://www.w3.org/2000/svg" viewBox="0 0 15 30" id="ic_arr_hor">
    <path d="M13.5 27L1.5 15L13.5 3" stroke="currentColor" stroke-width="1.5" stroke-linecap="round"></path>
  </symbol>
  <symbol fill="none" xmlns="http://www.w3.org/2000/svg" viewBox="0 0 22 11" id="ic_arr_ver">
    <path d="M1 1L11.0016 10L21 1" stroke="currentColor" stroke-width="2" stroke-linecap="round" stroke-linejoin="round"></path>
  </symbol>
  <symbol fill="none" xmlns="http://www.w3.org/2000/svg" viewBox="0 0 24 12" id="ic_arrow_hor">
    <path d="M5.65733 11L1 5.99918M1 5.99918L5.65733 0.999999M1 5.99918L23 5.99918" stroke="currentColor" stroke-width="2" stroke-linecap="round" stroke-linejoin="round"></path>
  </symbol>
  <symbol fill="none" xmlns="http://www.w3.org/2000/svg" viewBox="0 0 20 20" id="ic_arrow_ver">
    <path d="M4.1665 8.88856L9.99984 3.33301M9.99984 3.33301L15.8332 8.88856M9.99984 3.33301V16.6663" stroke="currentColor" stroke-width="2" stroke-linecap="round" stroke-linejoin="round"></path>
  </symbol>
  <symbol fill="none" xmlns="http://www.w3.org/2000/svg" viewBox="0 0 10 10" id="ic_bread_sep">
    <path d="M4 2.5L6.5 5L4 7.5" stroke="currentColor" stroke-width="1.5" stroke-linecap="round" stroke-linejoin="round"></path>
  </symbol>
  <symbol fill="none" xmlns="http://www.w3.org/2000/svg" viewBox="0 0 20 20" id="ic_cart">
    <path d="M4.82813 6.33332H4.35258C4.12165 6.33258 3.89896 6.41902 3.72901 6.57538C3.55906 6.73173 3.45439 6.94646 3.43591 7.17665L2.65675 17.26C2.6466 17.3864 2.66279 17.5135 2.70429 17.6333C2.7458 17.7532 2.81171 17.8631 2.89786 17.9561C2.98401 18.0492 3.08854 18.1233 3.20482 18.1739C3.3211 18.2245 3.44661 18.2504 3.57341 18.25H16.4267C16.5536 18.2504 16.6791 18.2245 16.7953 18.1739C16.9116 18.1233 17.0161 18.0492 17.1023 17.9561C17.1885 17.8631 17.2544 17.7532 17.2959 17.6333C17.3374 17.5135 17.3536 17.3864 17.3434 17.26L16.5642 7.17665C16.5458 6.94646 16.4411 6.73173 16.2712 6.57538C16.1012 6.41902 15.8785 6.33258 15.6476 6.33332H9.83267" stroke="currentColor" stroke-width="1.5" stroke-linecap="round"></path>
    <path d="M7.30957 13.2238V3.71665C7.30957 3.02898 7.59283 2.36948 8.09705 1.88322C8.60126 1.39697 9.28512 1.12379 9.99818 1.12379C10.7112 1.12379 11.3951 1.39697 11.8993 1.88322C12.4035 2.36948 12.6868 3.02898 12.6868 3.71665" stroke="currentColor" stroke-width="1.5" stroke-linecap="round"></path>
  </symbol>
  <symbol fill="none" xmlns="http://www.w3.org/2000/svg" viewBox="0 0 18 18" id="ic_check">
    <path fill-rule="evenodd" clip-rule="evenodd" d="M3 0H15C16.6569 0 18 1.34315 18 3V15C18 16.6569 16.6569 18 15 18H3C1.34315 18 0 16.6569 0 15V3C0 1.34315 1.34315 0 3 0ZM8.73 12.61L13.3 6.61V6.58C13.5179 6.29419 13.5668 5.91382 13.4283 5.58218C13.2897 5.25054 12.9848 5.01801 12.6283 4.97218C12.2718 4.92635 11.9179 5.07419 11.7 5.36L7.92 10.36L6.29 8.28C6.07028 7.99776 5.71668 7.85418 5.36239 7.90334C5.00811 7.9525 4.70696 8.18694 4.57239 8.51834C4.43783 8.84974 4.49028 9.22776 4.71 9.51L7.15 12.62C7.34082 12.8615 7.63222 13.0017 7.94 13C8.2495 12.9993 8.54121 12.8552 8.73 12.61Z" fill="currentColor"></path>
  </symbol>
  <symbol fill="none" xmlns="http://www.w3.org/2000/svg" viewBox="0 0 10 8" id="ic_check2">
    <path d="M9 1L3.03374 7L1 4.95476" stroke="currentColor" stroke-width="2" stroke-linecap="round" stroke-linejoin="round"></path>
  </symbol>
  <symbol fill="none" xmlns="http://www.w3.org/2000/svg" viewBox="0 0 20 20" id="ic_close">
    <path d="M16.6668 3.33338L3.3335 16.6667M16.6668 16.6667L3.3335 3.33337" stroke="currentColor" stroke-width="1.5" stroke-linecap="round"></path>
  </symbol>
  <symbol fill="none" xmlns="http://www.w3.org/2000/svg" viewBox="0 0 10 10" id="ic_edit">
    <path d="M9.83752 2.24552C10.0542 2.02888 10.0542 1.66782 9.83752 1.4623L8.5377 0.162477C8.33218 -0.0541591 7.97112 -0.0541591 7.75448 0.162477L6.7324 1.179L8.81544 3.26205M0 7.91696V10H2.08304L8.22664 3.85085L6.14359 1.76781L0 7.91696Z" fill="currentColor"></path>
  </symbol>
  <symbol fill="none" xmlns="http://www.w3.org/2000/svg" viewBox="0 0 22 18" id="ic_email">
    <path d="M4 4.06L10.87 9.95C10.94 10.01 11.06 10.01 11.13 9.95L18 4.06M2.2 1H19.8C20.46 1 21 1.54 21 2.2V14.6C21 15.92 19.92 17 18.6 17H3.4C2.08 17 1 15.92 1 14.6V2.2C1 1.54 1.54 1 2.2 1Z" stroke="currentColor" stroke-width="1.5" stroke-linecap="round" stroke-linejoin="round"></path>
  </symbol>
  <symbol fill="none" xmlns="http://www.w3.org/2000/svg" viewBox="0 0 15 10" id="ic_eye">
    <path d="M8.62454 5.00305C8.62454 5.59478 8.12106 6.07448 7.49999 6.07448C6.87891 6.07448 6.37543 5.59478 6.37543 5.00305C6.37543 4.41131 6.87891 3.93162 7.49999 3.93162C8.12106 3.93162 8.62454 4.41131 8.62454 5.00305Z" fill="currentColor"></path>
    <path fill-rule="evenodd" clip-rule="evenodd" d="M7.29758 0.0030472C11.7808 -0.125524 14.4198 3.85305 14.8996 4.6459C15.0335 4.86691 15.0335 5.13919 14.8996 5.36019C14.2548 6.43162 11.8483 9.90305 7.70242 10.003H7.51499C3.09925 10.003 0.572753 6.13876 0.100441 5.36019C-0.0334803 5.13919 -0.0334803 4.86691 0.100441 4.6459C0.752682 3.57448 3.15173 0.103047 7.29758 0.0030472ZM4.87604 5.00305C4.87604 6.38376 6.05083 7.50305 7.5 7.50305C8.94917 7.50305 10.124 6.38376 10.124 5.00305C10.124 3.62234 8.94917 2.50305 7.5 2.50305C6.05083 2.50305 4.87604 3.62234 4.87604 5.00305Z" fill="currentColor"></path>
  </symbol>
  <symbol fill="none" xmlns="http://www.w3.org/2000/svg" viewBox="0 0 20 20" id="ic_favorite">
    <path d="M15.8332 4.74012V2.5C15.8332 2.03976 15.4601 1.66666 14.9999 1.66666H4.99985C4.53962 1.66666 4.16652 2.03976 4.16652 2.5V4.74012M15.8332 7.88506L15.8332 18.3333L12.9165 15.787L9.99985 13.2407L4.16652 18.3333L4.1665 7.88506" stroke="currentColor" stroke-width="1.5" stroke-linecap="round"></path>
  </symbol>
  <symbol fill="none" xmlns="http://www.w3.org/2000/svg" viewBox="0 0 15 15" id="ic_favorite_a">
    <path d="M3.75001 1.25C3.40484 1.25 3.12501 1.52983 3.12501 1.875V3.55509V13.75L7.50001 9.93056L9.68751 11.8403L11.875 13.75V3.55509V1.875C11.875 1.52983 11.5952 1.25 11.25 1.25H3.75001Z" fill="white"></path>
    <path d="M11.8585 3.5528V1.87438C11.8585 1.52955 11.579 1.25 11.2341 1.25H3.74158C3.39675 1.25 3.1172 1.52955 3.1172 1.87438V3.5528M11.8585 5.37548L11.8585 13.7376L9.67317 11.8297L7.48785 9.92193L3.1172 13.7376L3.11719 5.37548" stroke="currentColor" stroke-linecap="round"></path>
  </symbol>
  <symbol fill="none" xmlns="http://www.w3.org/2000/svg" viewBox="0 0 20 20" id="ic_filter">
    <path d="M2 4L10 4M2 10H10M10 10V12M10 10V8M2 16H6M10 16L18 16M14 10H18M14 4L18 4M14 4V6M14 4V2M6.5 18V14" stroke="currentColor" stroke-width="1.5" stroke-linecap="round" stroke-linejoin="round"></path>
  </symbol>
  <symbol fill="none" xmlns="http://www.w3.org/2000/svg" viewBox="0 0 20 20" id="ic_lang">
    <path d="M10 17.5C14.1421 17.5 17.5 14.1421 17.5 10C17.5 5.85786 14.1421 2.5 10 2.5M10 17.5C5.85786 17.5 2.5 14.1421 2.5 10C2.5 5.85786 5.85786 2.5 10 2.5M10 17.5C8.18782 17.5 6.71875 14.1421 6.71875 10C6.71875 5.85786 8.18782 2.5 10 2.5M10 17.5C11.8122 17.5 13.2812 14.1421 13.2812 10C13.2812 5.85786 11.8122 2.5 10 2.5M3.90625 13.6453C5.28027 12.8585 7.56311 12.3437 10.147 12.3437C12.8437 12.3437 15.2125 12.9045 16.5625 13.75M3.90625 6.35465C5.28027 7.14146 7.56311 7.65625 10.147 7.65625C12.8437 7.65625 15.2125 7.0955 16.5625 6.25" stroke="currentColor" stroke-width="1.5"></path>
  </symbol>
  <symbol fill="none" xmlns="http://www.w3.org/2000/svg" viewBox="0 0 20 20" id="ic_link_arrow">
    <path d="M7.22353 6L13.9059 6.09412M13.9059 6.09412L14 12.7765M13.9059 6.09412L6 14" stroke="currentColor" stroke-width="1.5" stroke-linecap="round" stroke-linejoin="round"></path>
  </symbol>
  <symbol fill="none" xmlns="http://www.w3.org/2000/svg" viewBox="0 0 15 15" id="ic_logout">
    <path d="M1.70455 15C1.2358 15 0.834659 14.8369 0.501136 14.5108C0.167614 14.1847 0.000568182 13.7922 0 13.3333V1.66667C0 1.20833 0.167045 0.816111 0.501136 0.49C0.835227 0.163889 1.23636 0.000555555 1.70455 0H6.81818C7.05966 0 7.26222 0.08 7.42585 0.24C7.58949 0.4 7.67102 0.597777 7.67045 0.833333C7.66989 1.06889 7.58807 1.26694 7.425 1.4275C7.26193 1.58805 7.05966 1.66778 6.81818 1.66667H1.70455V13.3333H6.81818C7.05966 13.3333 7.26222 13.4133 7.42585 13.5733C7.58949 13.7333 7.67102 13.9311 7.67045 14.1667C7.66989 14.4022 7.58807 14.6003 7.425 14.7608C7.26193 14.9214 7.05966 15.0011 6.81818 15H1.70455ZM12.081 8.33333H5.96591C5.72443 8.33333 5.52216 8.25333 5.35909 8.09333C5.19602 7.93333 5.1142 7.73555 5.11364 7.49999C5.11307 7.26444 5.19489 7.06666 5.35909 6.90666C5.5233 6.74666 5.72557 6.66666 5.96591 6.66666H12.081L10.483 5.10416C10.3267 4.95139 10.2486 4.76389 10.2486 4.54166C10.2486 4.31944 10.3267 4.125 10.483 3.95833C10.6392 3.79166 10.8381 3.70472 11.0795 3.6975C11.321 3.69027 11.527 3.77027 11.6974 3.9375L14.7443 6.91666C14.9148 7.08333 15 7.27777 15 7.49999C15 7.72222 14.9148 7.91666 14.7443 8.08333L11.6974 11.0625C11.527 11.2292 11.3247 11.3092 11.0906 11.3025C10.8565 11.2958 10.654 11.2089 10.483 11.0417C10.3267 10.875 10.2523 10.6772 10.2597 10.4483C10.267 10.2194 10.3486 10.0283 10.5043 9.87499L12.081 8.33333Z" fill="currentColor"></path>
  </symbol>
  <symbol fill="none" xmlns="http://www.w3.org/2000/svg" viewBox="0 0 20 20" id="ic_menu">
    <path d="M2.09717 7.72781H18.0128" stroke="currentColor" stroke-width="1.5" stroke-linecap="round"></path>
    <path d="M2.09717 12.3948H9.27716" stroke="currentColor" stroke-width="1.5" stroke-linecap="round"></path>
  </symbol>
  <symbol fill="none" xmlns="http://www.w3.org/2000/svg" viewBox="0 0 30 30" id="ic_messages">
    <path d="M8.62179 28.0265C9.12375 28.0265 9.47572 27.7758 10.0655 27.2229L14.6105 23.0797L23.0855 23.092C26.8275 23.1049 28.8364 21.0204 28.8364 17.3417V7.72399C28.8364 4.04524 26.8275 1.97363 23.0861 1.97363H6.91393C3.18536 1.97363 1.16357 4.03238 1.16357 7.72399V17.3417C1.16357 21.0327 3.18482 23.092 6.91393 23.0797H7.50429V26.7333C7.50429 27.5117 7.9184 28.0265 8.62179 28.0265ZM8.93572 11.7542C8.93572 10.2354 10.1036 9.1806 11.6223 9.1806C13.2798 9.1806 14.3973 10.4985 14.3973 12.2192C14.3973 15.4458 11.8232 16.9774 10.53 16.9774C10.1657 16.9774 9.90215 16.7138 9.90215 16.3876C9.90215 16.086 10.0404 15.8851 10.5177 15.7474C11.3464 15.5213 12.3129 14.8683 12.7779 13.8263H12.6771C12.338 14.2404 11.8232 14.3283 11.2838 14.3283C9.85232 14.3283 8.93572 13.1979 8.93572 11.7542ZM15.7913 11.7542C15.7913 10.2354 16.9591 9.1806 18.4779 9.1806C20.1354 9.1806 21.2529 10.4985 21.2529 12.2192C21.2529 15.4458 18.6788 16.9774 17.3855 16.9774C17.0213 16.9774 16.7577 16.7138 16.7577 16.3876C16.7577 16.086 16.8959 15.8851 17.3732 15.7474C18.202 15.5213 19.1684 14.8683 19.6329 13.8263H19.5327C19.1936 14.2404 18.6788 14.3283 18.1388 14.3283C16.7079 14.3283 15.7913 13.1979 15.7913 11.7542Z" fill="currentColor"></path>
  </symbol>
  <symbol fill="none" xmlns="http://www.w3.org/2000/svg" viewBox="0 0 20 20" id="ic_notice">
    <path d="M10 10L10 13.75M10 7.22046V7.1875M2.5 10C2.5 5.85786 5.85787 2.5 10 2.5C14.1421 2.5 17.5 5.85787 17.5 10C17.5 14.1421 14.1421 17.5 10 17.5C5.85786 17.5 2.5 14.1421 2.5 10Z" stroke="currentColor" stroke-width="1.5" stroke-linecap="round" stroke-linejoin="round"></path>
  </symbol>
  <symbol fill="none" xmlns="http://www.w3.org/2000/svg" viewBox="0 0 20 20" id="ic_phone">
    <path d="M14.407 17.4706C14.4642 17.4745 14.5253 17.4745 14.5825 17.4745C15.1779 17.4745 15.6321 17.2802 16.0175 16.8689C16.2541 16.5909 17.2197 15.6425 17.2197 15.6425C17.2197 15.6425 17.609 14.8389 17.2159 14.4504L15.113 12.3519C15.1092 12.3481 15.1092 12.3481 15.1054 12.3442C14.9871 12.2148 14.7924 12.0662 14.5558 12.0662C14.3154 12.0662 14.1093 12.2224 13.9795 12.3519L13.2315 13.0984C13.1666 13.1632 12.9681 13.3612 12.6514 13.3612C12.5254 13.3612 12.4033 13.3307 12.2736 13.266C12.2583 13.2584 12.243 13.2469 12.2278 13.2393C12.1171 13.1708 11.9873 13.106 11.8499 13.0375C11.6973 12.9613 11.537 12.8813 11.3805 12.7823C10.1554 12.0091 9.04487 10.9999 7.99154 9.70493L7.98772 9.70112C7.40763 8.96605 7.02599 8.34906 6.75502 7.69398C6.75121 7.68255 6.74739 7.67113 6.74357 7.6597C6.67488 7.44261 6.61382 7.12268 6.94203 6.79514C6.94584 6.78753 6.95348 6.78372 6.96111 6.7761C7.29314 6.47903 7.0413 6.73035 7.36188 6.40281C7.47256 6.29617 7.57942 6.18572 7.6901 6.07527C8.09464 5.67155 8.09464 5.29831 7.6901 4.89459L6.64821 3.85484C6.52609 3.72916 6.40396 3.60728 6.28565 3.48541C6.05285 3.24546 5.8315 3.02076 5.5987 2.80366C5.59488 2.79986 5.59107 2.79605 5.58725 2.79224C5.46513 2.67036 5.27049 2.52563 5.03005 2.52563C4.83542 2.52563 4.63696 2.62085 4.44996 2.79605L3.14856 4.09479C2.8318 4.4109 2.66006 4.78034 2.6219 5.22594C2.56465 5.92292 2.69441 6.66179 3.04933 7.61014C3.62561 9.16405 4.49576 10.6113 5.79715 12.1767C6.86094 13.4439 8.07075 14.5307 9.40898 15.4243" stroke="currentColor" stroke-width="1.5" stroke-linecap="round" stroke-linejoin="round"></path>
  </symbol>
  <symbol fill="none" xmlns="http://www.w3.org/2000/svg" viewBox="0 0 20 20" id="ic_remove">
    <path d="M5 2C5 1.46957 5.21071 0.960859 5.58579 0.585786C5.96086 0.210714 6.46957 0 7 0H13C13.5304 0 14.0391 0.210714 14.4142 0.585786C14.7893 0.960859 15 1.46957 15 2V4H19C19.2652 4 19.5196 4.10536 19.7071 4.29289C19.8946 4.48043 20 4.73478 20 5C20 5.26522 19.8946 5.51957 19.7071 5.70711C19.5196 5.89464 19.2652 6 19 6H17.931L17.064 18.142C17.0281 18.6466 16.8023 19.1188 16.4321 19.4636C16.0619 19.8083 15.5749 20 15.069 20H4.93C4.42414 20 3.93707 19.8083 3.56688 19.4636C3.1967 19.1188 2.97092 18.6466 2.935 18.142L2.07 6H1C0.734784 6 0.48043 5.89464 0.292893 5.70711C0.105357 5.51957 0 5.26522 0 5C0 4.73478 0.105357 4.48043 0.292893 4.29289C0.48043 4.10536 0.734784 4 1 4H5V2ZM7 4H13V2H7V4ZM4.074 6L4.931 18H15.07L15.927 6H4.074ZM8 8C8.26522 8 8.51957 8.10536 8.70711 8.29289C8.89464 8.48043 9 8.73478 9 9V15C9 15.2652 8.89464 15.5196 8.70711 15.7071C8.51957 15.8946 8.26522 16 8 16C7.73478 16 7.48043 15.8946 7.29289 15.7071C7.10536 15.5196 7 15.2652 7 15V9C7 8.73478 7.10536 8.48043 7.29289 8.29289C7.48043 8.10536 7.73478 8 8 8ZM12 8C12.2652 8 12.5196 8.10536 12.7071 8.29289C12.8946 8.48043 13 8.73478 13 9V15C13 15.2652 12.8946 15.5196 12.7071 15.7071C12.5196 15.8946 12.2652 16 12 16C11.7348 16 11.4804 15.8946 11.2929 15.7071C11.1054 15.5196 11 15.2652 11 15V9C11 8.73478 11.1054 8.48043 11.2929 8.29289C11.4804 8.10536 11.7348 8 12 8Z" fill="currentColor"></path>
  </symbol>
  <symbol fill="none" xmlns="http://www.w3.org/2000/svg" viewBox="0 0 20 20" id="ic_search">
    <path d="M14.1057 14.2L17 17M16.0667 9.53333C16.0667 13.1416 13.1416 16.0667 9.53333 16.0667C5.92507 16.0667 3 13.1416 3 9.53333C3 5.92507 5.92507 3 9.53333 3C13.1416 3 16.0667 5.92507 16.0667 9.53333Z" stroke="currentColor" stroke-width="1.5" stroke-linecap="round"></path>
  </symbol>
  <symbol fill="none" xmlns="http://www.w3.org/2000/svg" viewBox="0 0 20 20" id="ic_sort">
    <path d="M11.875 5.3125L14.6875 2.5M14.6875 2.5L17.5 5.3125M14.6875 2.5L14.6875 17.5M8.125 14.6875L5.3125 17.5M5.3125 17.5L2.5 14.6875M5.3125 17.5L5.3125 2.5" stroke="currentColor" stroke-width="1.5" stroke-linecap="round" stroke-linejoin="round"></path>
  </symbol>
  <symbol fill="none" xmlns="http://www.w3.org/2000/svg" viewBox="0 0 30 30" id="ic_star_full">
    <path d="M10.3033 9.17442L2.32834 10.3307L2.18709 10.3594C1.97326 10.4162 1.77833 10.5287 1.6222 10.6854C1.46607 10.8422 1.35434 11.0375 1.29841 11.2516C1.24249 11.4656 1.24437 11.6907 1.30387 11.9038C1.36337 12.1168 1.47836 12.3103 1.63709 12.4644L7.41459 18.0882L6.05209 26.0319L6.03584 26.1694C6.02275 26.3906 6.06867 26.6112 6.1689 26.8088C6.26913 27.0064 6.42007 27.1737 6.60626 27.2938C6.79245 27.4139 7.0072 27.4823 7.22852 27.4921C7.44985 27.5018 7.66979 27.4526 7.86584 27.3494L14.9983 23.5994L22.1146 27.3494L22.2396 27.4069C22.4459 27.4882 22.6702 27.5131 22.8893 27.4791C23.1084 27.4451 23.3146 27.3535 23.4866 27.2135C23.6586 27.0735 23.7903 26.8904 23.8681 26.6827C23.946 26.4751 23.9672 26.2505 23.9296 26.0319L22.5658 18.0882L28.3458 12.4632L28.4433 12.3569C28.5826 12.1854 28.6739 11.98 28.708 11.7617C28.742 11.5433 28.7176 11.3199 28.6372 11.1141C28.5568 10.9083 28.4233 10.7275 28.2502 10.5901C28.0772 10.4527 27.8708 10.3636 27.6521 10.3319L19.6771 9.17442L16.1121 1.94941C16.0089 1.74008 15.8492 1.56381 15.6511 1.44055C15.4529 1.31728 15.2242 1.25195 14.9908 1.25195C14.7575 1.25195 14.5288 1.31728 14.3306 1.44055C14.1324 1.56381 13.9727 1.74008 13.8696 1.94941L10.3033 9.17442Z" fill="currentColor"></path>
  </symbol>
  <symbol fill="none" xmlns="http://www.w3.org/2000/svg" viewBox="0 0 30 30" id="ic_star_middle">
    <path d="M10.411 9.91665L10.8013 9.86006L10.9759 9.50638L14.5421 2.28138L14.5423 2.28094C14.5836 2.19721 14.6475 2.1267 14.7267 2.07739C14.806 2.02808 14.8975 2.00195 14.9908 2.00195C15.0842 2.00195 15.1757 2.02808 15.2549 2.07739C15.3342 2.1267 15.3981 2.19721 15.4393 2.28094L15.4395 2.28128L19.0045 9.50628L19.179 9.85999L19.5694 9.91664L27.5444 11.0741L27.5446 11.0742C27.6321 11.0868 27.7146 11.1225 27.7838 11.1774C27.8531 11.2324 27.9065 11.3047 27.9386 11.387C27.9708 11.4694 27.9806 11.5587 27.967 11.6461C27.9542 11.7276 27.9216 11.8046 27.8719 11.8703L27.8076 11.9404L22.0428 17.5507L21.7599 17.826L21.8267 18.2151L23.1904 26.1588L23.1905 26.1591C23.2055 26.2465 23.197 26.3364 23.1659 26.4194C23.1347 26.5025 23.0821 26.5757 23.0133 26.6317C22.9444 26.6877 22.862 26.7244 22.7743 26.738C22.692 26.7507 22.6079 26.7427 22.5297 26.7148L22.4464 26.6765L15.348 22.9359L14.9987 22.7519L14.6493 22.9356L7.51682 26.6856L7.51653 26.6857C7.43811 26.727 7.35013 26.7467 7.2616 26.7428C7.17307 26.7389 7.08717 26.7115 7.01269 26.6635C6.93822 26.6155 6.87784 26.5485 6.83775 26.4695C6.80023 26.3955 6.78173 26.3135 6.78381 26.2307L6.7946 26.1394L8.15379 18.215L8.22051 17.826L7.93772 17.5507L2.16022 11.927L2.15952 11.9263C2.09603 11.8647 2.05004 11.7873 2.02624 11.702C2.00244 11.6168 2.00168 11.5268 2.02405 11.4412C2.04642 11.3556 2.09112 11.2774 2.15357 11.2147L1.62444 10.6876L2.15357 11.2147C2.212 11.156 2.28402 11.1129 2.3631 11.089L2.45705 11.0698L10.411 9.91665Z" fill="url(#linearGradient)" stroke="currentColor" stroke-width="1.5"></path>
    <defs>
      <linearGradient id="linearGradient" x1="1.25781" y1="14.3729" x2="28.7229" y2="14.3729" gradientUnits="userSpaceOnUse">
        <stop offset="0.5"></stop>
        <stop offset="0.5" stop-color="white"></stop>
      </linearGradient>
    </defs>
  </symbol>
  <symbol fill="none" xmlns="http://www.w3.org/2000/svg" viewBox="0 0 20 20" id="ic_tg">
    <path d="M10 0C4.48 0 0 4.48 0 10C0 15.52 4.48 20 10 20C15.52 20 20 15.52 20 10C20 4.48 15.52 0 10 0ZM14.64 6.8C14.49 8.38 13.84 12.22 13.51 13.99C13.37 14.74 13.09 14.99 12.83 15.02C12.25 15.07 11.81 14.64 11.25 14.27C10.37 13.69 9.87 13.33 9.02 12.77C8.03 12.12 8.67 11.76 9.24 11.18C9.39 11.03 11.95 8.7 12 8.49C12.0069 8.45819 12.006 8.42517 11.9973 8.3938C11.9886 8.36244 11.9724 8.33367 11.95 8.31C11.89 8.26 11.81 8.28 11.74 8.29C11.65 8.31 10.25 9.24 7.52 11.08C7.12 11.35 6.76 11.49 6.44 11.48C6.08 11.47 5.4 11.28 4.89 11.11C4.26 10.91 3.77 10.8 3.81 10.45C3.83 10.27 4.08 10.09 4.55 9.9C7.47 8.63 9.41 7.79 10.38 7.39C13.16 6.23 13.73 6.03 14.11 6.03C14.19 6.03 14.38 6.05 14.5 6.15C14.6 6.23 14.63 6.34 14.64 6.42C14.63 6.48 14.65 6.66 14.64 6.8Z" fill="currentColor"></path>
  </symbol>
  <symbol fill="none" xmlns="http://www.w3.org/2000/svg" viewBox="0 0 22 22" id="ic_tg2">
    <path d="M20.4483 1.55165L9.34005 12.66M1.90739 7.0784L19.2052 1.07712C20.2704 0.707548 21.2925 1.72956 20.9229 2.7948L14.9216 20.0926C14.5105 21.2776 12.8464 21.3101 12.3894 20.142L9.64259 13.1225C9.5054 12.772 9.22804 12.4946 8.87746 12.3574L1.85795 9.61065C0.689888 9.15358 0.722378 7.48953 1.90739 7.0784Z" stroke="currentColor" stroke-width="1.5" stroke-linecap="round"></path>
  </symbol>
  <symbol fill="none" xmlns="http://www.w3.org/2000/svg" viewBox="0 0 20 20" id="ic_tooltip">
    <path d="M9.99919 13.75V13.783M8.125 7.69166C8.125 6.63657 8.96447 5.78125 10 5.78125C11.0355 5.78125 11.875 6.63657 11.875 7.69166C11.875 8.74675 11.0355 9.60207 10 9.60207C10 9.60207 9.99919 10.1723 9.99919 10.8757M17.5 10C17.5 14.1421 14.1421 17.5 10 17.5C5.85786 17.5 2.5 14.1421 2.5 10C2.5 5.85786 5.85786 2.5 10 2.5C14.1421 2.5 17.5 5.85786 17.5 10Z" stroke="currentColor" stroke-width="1.5" stroke-linecap="round" stroke-linejoin="round"></path>
  </symbol>
  <symbol fill="none" xmlns="http://www.w3.org/2000/svg" viewBox="0 0 20 20" id="ic_track">
    <path d="M9.81707 17.1341C5.77596 17.1341 2.5 13.8582 2.5 9.81707C2.5 5.77596 5.77596 2.5 9.81707 2.5C12.8878 2.5 15.5168 4.39162 16.6023 7.07317M3.41463 12.561H5.54878C6.39068 12.561 7.07317 11.8785 7.07317 11.0366V9.05488C7.07317 8.21298 7.75566 7.53049 8.59756 7.53049H10.122C10.9638 7.53049 11.6463 6.84799 11.6463 6.0061V3.41463M14.5732 12.7439V12.6889M17.5 12.6803C17.5 14.5891 14.5732 17.1341 14.5732 17.1341C14.5732 17.1341 11.6463 14.5891 11.6463 12.6803C11.6463 11.099 12.9567 9.81707 14.5732 9.81707C16.1896 9.81707 17.5 11.099 17.5 12.6803Z" stroke="currentColor" stroke-width="1.5" stroke-linecap="round" stroke-linejoin="round"></path>
  </symbol>
  <symbol fill="none" xmlns="http://www.w3.org/2000/svg" viewBox="0 0 20 20" id="ic_user">
    <path d="M2 17.0937C2 13.9474 4.62857 11.3968 10 11.3968C15.3714 11.3968 18 13.9474 18 17.0937C18 17.5942 17.6348 18 17.1843 18L8 18M13 5C13 6.65685 11.6569 8 10 8C8.34314 8 7 6.65685 7 5C7 3.34315 8.34314 2 10 2C11.6569 2 13 3.34315 13 5Z" stroke="currentColor" stroke-width="1.5" stroke-linecap="round"></path>
  </symbol>
  <symbol fill="none" xmlns="http://www.w3.org/2000/svg" viewBox="0 0 71 50" id="ic_video_play">
    <path d="M28.2828 34.2064L47.528 24.2855L28.2828 14.248V34.2064ZM35.6418 0.000130209C40.0967 0.000130209 44.3991 0.0598525 48.5492 0.179297C52.6992 0.298741 55.7417 0.424436 57.6768 0.55638L60.5795 0.723047C60.6059 0.723047 60.8287 0.743186 61.2477 0.783464C61.5965 0.810547 61.9097 0.852214 62.2188 0.910547L62.1645 0.902214C62.351 0.942491 62.6628 1.00221 63.1 1.08138C63.5281 1.1543 63.9102 1.26471 64.2715 1.41055L64.2339 1.39805C64.5527 1.52999 64.9244 1.70221 65.349 1.91471C65.8189 2.15221 66.224 2.41055 66.5999 2.70013L66.5832 2.68763C67.0071 3.0168 67.3829 3.36055 67.7296 3.73346L67.7359 3.73971C67.9503 3.96333 68.1507 4.20083 68.3373 4.45221L68.3519 4.47305C68.7737 5.13555 69.1621 5.90221 69.4733 6.7043L69.5046 6.79596C70.0058 7.96055 70.3754 9.31055 70.5508 10.723L70.5592 10.796C70.7708 12.489 70.9378 14.2946 71.0603 16.2126C71.1828 18.1307 71.2559 19.6307 71.2796 20.7126V27.696L71.2817 28.2439C71.2817 32.1043 71.0207 35.9064 70.5153 39.6293L70.5633 39.196C70.398 40.5873 70.0483 41.9506 69.5234 43.2501L69.561 43.1439C69.2472 44.0238 68.8114 44.8555 68.2663 45.6147L68.2872 45.5835L67.7317 46.2501C67.3834 46.6255 67.0048 46.9718 66.5999 47.2855L66.579 47.3022C66.2104 47.5911 65.8104 47.8378 65.3866 48.0376L65.3469 48.0543C64.9223 48.2529 64.5506 48.4196 64.2318 48.5543C63.877 48.6968 63.5082 48.8016 63.1313 48.8668L63.0979 48.871C62.6608 48.9501 62.3427 49.0099 62.1436 49.0501C61.9445 49.0904 61.6396 49.13 61.2289 49.1689C60.8182 49.2078 60.5997 49.2279 60.5732 49.2293C53.9257 49.746 45.6166 50.0043 35.646 50.0043C30.1567 49.9515 25.3899 49.8654 21.3457 49.746C17.3015 49.6265 14.6432 49.5272 13.3708 49.4481L11.4203 49.2814L9.98781 49.1147C9.21263 49.0209 8.44406 48.8789 7.68658 48.6897L7.81605 48.7168C7.09313 48.4923 6.3921 48.203 5.72155 47.8522L5.78837 47.8835C4.95027 47.4775 4.19038 46.9274 3.54352 46.2585L3.54143 46.2564C3.3278 46.0303 3.12702 45.7924 2.94002 45.5439L2.9254 45.523C2.47792 44.8185 2.10226 44.071 1.80402 43.2918L1.77269 43.2001C1.24197 41.9462 0.889819 40.6244 0.726488 39.273L0.718135 39.2001C0.506527 37.5071 0.339468 35.7015 0.216958 33.7835C0.0944486 31.8654 0.0213604 30.3654 -0.0023063 29.2835V22.3001L-0.00439453 21.7522C-0.00439453 17.8918 0.256635 14.0897 0.761988 10.3668L0.713958 10.8001C0.879281 9.40879 1.22898 8.0455 1.7539 6.74596L1.71631 6.85221C2.05461 5.92096 2.48478 5.11471 3.01102 4.38138L2.99013 4.41263L3.5456 3.74596C3.89782 3.36819 4.2751 3.02305 4.67743 2.71055L4.69831 2.69388C5.05749 2.41471 5.46052 2.15846 5.88861 1.93971L5.93246 1.91888C6.35707 1.70777 6.72877 1.53555 7.04758 1.40221C7.40235 1.25967 7.77123 1.15492 8.14808 1.08971L8.18149 1.08555C8.61862 1.00638 8.93047 0.946658 9.11702 0.90638C9.36969 0.85638 9.68293 0.814714 10.0024 0.789714L10.0338 0.78763C10.4584 0.747352 10.6811 0.727214 10.702 0.727214C17.3607 0.241102 25.676 -0.00195312 35.648 -0.00195312L35.6418 0.000130209Z" fill="currentColor"></path>
  </symbol>
  <symbol fill="none" xmlns="http://www.w3.org/2000/svg" viewBox="0 0 20 20" id="ic_vk">
    <path d="M1.4 1.4C2.6491e-07 2.81333 0 5.07333 0 9.6V10.4C0 14.92 2.6491e-07 17.18 1.4 18.6C2.81333 20 5.07333 20 9.6 20H10.4C14.92 20 17.18 20 18.6 18.6C20 17.1867 20 14.9267 20 10.4V9.6C20 5.08 20 2.82 18.6 1.4C17.1867 2.6491e-07 14.9267 0 10.4 0H9.6C5.08 0 2.82 2.6491e-07 1.4 1.4ZM3.37333 6.08667H5.66667C5.74 9.9 7.42 11.5133 8.75333 11.8467V6.08667H10.9067V9.37333C12.22 9.23333 13.6067 7.73333 14.0733 6.08H16.22C16.0448 6.9358 15.6951 7.7463 15.1927 8.46091C14.6903 9.17551 14.046 9.77888 13.3 10.2333C14.1327 10.6476 14.8681 11.2338 15.4576 11.9532C16.0471 12.6726 16.4774 13.5088 16.72 14.4067H14.3533C13.8467 12.8267 12.58 11.6 10.9067 11.4333V14.4067H10.64C6.08 14.4067 3.48 11.2867 3.37333 6.08667Z" fill="currentColor"></path>
  </symbol>
  <symbol fill="none" xmlns="http://www.w3.org/2000/svg" viewBox="0 0 20 20" id="ic_whatsapp">
    <path d="M17.0976 2.894C15.2297 1.03989 12.7008 -0.000763921 10.0647 4.2075e-07C4.58089 4.2075e-07 0.0983196 4.437 0.0983196 9.904C0.0983196 11.672 0.549787 13.344 1.42062 14.887L0 20L5.3233 18.65C6.77502 19.421 8.42037 19.871 10.0978 19.871C15.5495 19.839 20 15.401 20 9.904C20 7.267 18.9686 4.791 17.0976 2.894ZM10.0326 18.167C8.54187 18.1593 7.08126 17.748 5.80687 16.977L5.48382 16.785L2.35465 17.588L3.22649 14.566L3.03286 14.244C2.21828 12.9178 1.78289 11.3949 1.77376 9.84C1.77376 5.306 5.45072 1.64 10.0316 1.64C12.2257 1.64 14.2904 2.509 15.8385 4.052C16.6089 4.8203 17.2193 5.73285 17.6346 6.73717C18.0499 7.74148 18.2619 8.81773 18.2583 9.904C18.3225 14.503 14.5804 18.168 10.0316 18.168M14.5804 11.995C14.3225 11.866 13.1287 11.255 12.8387 11.223C12.613 11.126 12.4194 11.094 12.2899 11.352C12.1605 11.609 11.6448 12.123 11.5154 12.316C11.387 12.445 11.2576 12.509 10.9676 12.348C10.7088 12.22 9.93429 11.995 8.96714 11.094C8.22473 10.451 7.70905 9.647 7.61274 9.358C7.48332 9.101 7.57963 9.004 7.74116 8.843C7.87058 8.715 8 8.586 8.09631 8.393C8.22573 8.265 8.22573 8.136 8.35415 7.975C8.48357 7.847 8.38626 7.654 8.32205 7.525C8.22573 7.397 7.77326 6.175 7.54753 5.66C7.3539 5.146 7.12817 5.242 6.99975 5.242H6.54828C6.41786 5.242 6.09681 5.274 5.90218 5.564C5.67645 5.821 5.03135 6.432 5.03135 7.654C5.03135 8.876 5.90218 10.001 6.06471 10.226C6.19313 10.355 7.83848 12.895 10.2904 13.988C10.8703 14.245 11.3218 14.406 11.7091 14.535C12.2899 14.728 12.8387 14.663 13.2581 14.631C13.7417 14.599 14.7098 14.052 14.9355 13.441C15.1292 12.895 15.1292 12.348 15.064 12.251C14.9998 12.188 14.8061 12.091 14.5804 11.995Z" fill="currentColor"></path>
  </symbol>
  <symbol fill="none" xmlns="http://www.w3.org/2000/svg" viewBox="0 0 20 20" id="ic_x">
    <path d="M2.85714 0C1.28125 0 0 1.28125 0 2.85714V17.1429C0 18.7188 1.28125 20 2.85714 20H17.1429C18.7188 20 20 18.7188 20 17.1429V2.85714C20 1.28125 18.7188 0 17.1429 0H2.85714ZM16.1205 3.75L11.4866 9.04464L16.9375 16.25H12.6696L9.33036 11.8795L5.50446 16.25H3.38393L8.33929 10.5848L3.11161 3.75H7.48661L10.5089 7.74554L14 3.75H16.1205ZM14.433 14.9821L6.84821 4.95089H5.58482L13.2545 14.9821H14.4286H14.433Z" fill="currentColor"></path>
  </symbol>
</svg>