<svg width="71" height="10" viewBox="0 0 71 10" fill="none" xmlns="http://www.w3.org/2000/svg">
<path fill-rule="evenodd" clip-rule="evenodd" d="M13.0546 0.0309688C13.0185 0.0369616 12.9889 0.0541077 12.9889 0.0689232C12.9889 0.0839052 12.9725 0.0930609 12.9525 0.0893986C12.8946 0.0787448 12.7847 0.122026 12.7847 0.155486C12.7847 0.172299 12.7766 0.178292 12.7666 0.168803C12.7567 0.159481 12.7273 0.170301 12.701 0.193274C12.2629 0.575648 12.1505 0.781401 12.142 1.21721C12.1295 1.85445 12.7647 2.40828 13.4494 2.35684C13.5732 2.34769 13.6989 2.33953 13.7288 2.33903C13.9119 2.33537 14.6145 1.84645 14.5898 1.73992C14.5868 1.7271 14.6141 1.65552 14.6503 1.58094C14.7646 1.34622 14.7375 0.809201 14.605 0.683185C14.5826 0.661878 14.5642 0.626587 14.5642 0.60478C14.5642 0.582973 14.5511 0.565161 14.535 0.565161C14.5191 0.565161 14.5059 0.552676 14.5059 0.537361C14.5059 0.492415 14.2394 0.245711 14.1048 0.16614C14.0365 0.125855 13.9808 0.0995531 13.9808 0.10771C13.9808 0.115867 13.9502 0.103548 13.9128 0.080243C13.8755 0.0569376 13.8364 0.0459508 13.8259 0.0557723C13.8156 0.0655939 13.7902 0.0604334 13.7698 0.0441197C13.7342 0.0161533 13.2019 0.00633173 13.0546 0.0309688ZM54.2947 0.0481149C54.2535 0.0684238 54.1846 0.0933938 54.1415 0.103715C54.0984 0.114036 54.0633 0.134678 54.0633 0.14966C54.0633 0.164475 54.0456 0.176794 54.024 0.176794C53.9624 0.176794 53.6708 0.45496 53.5868 0.593793C53.3169 1.04026 53.3603 1.6124 53.6889 1.93685C53.7344 1.98179 53.7715 2.02857 53.7715 2.04089C53.7715 2.05337 53.7897 2.06336 53.8121 2.06336C53.8345 2.06336 53.8592 2.07934 53.867 2.09865C53.8823 2.13644 54.1194 2.25563 54.3111 2.32172C54.427 2.36167 54.9794 2.37931 55.0405 2.34502C55.0711 2.32771 55.1229 2.31589 55.2081 2.30674C55.2363 2.30374 55.2593 2.29142 55.2593 2.27943C55.2593 2.26745 55.2855 2.25763 55.3175 2.25763C55.3497 2.25763 55.376 2.24814 55.376 2.23665C55.376 2.22517 55.4136 2.19986 55.4597 2.18039C55.558 2.1391 55.7766 1.93618 55.8006 1.86393C55.8099 1.8363 55.8281 1.81366 55.8412 1.81366C55.8544 1.81366 55.872 1.78569 55.8806 1.75124C55.8892 1.71694 55.9165 1.63887 55.9412 1.57794C56.1171 1.14247 55.8775 0.527539 55.4003 0.19061C55.1653 0.0246431 54.5126 -0.0595891 54.2947 0.0481149ZM26.4372 3.44021C26.4372 7.0269 26.4412 7.14376 26.5741 7.4459C26.5842 7.4687 26.5898 7.49833 26.5867 7.51148C26.5835 7.52464 26.601 7.56492 26.6257 7.60071C26.6504 7.6365 26.6707 7.68594 26.6707 7.71058C26.6707 7.76535 26.9866 8.33982 27.032 8.36729C27.0498 8.37828 27.0645 8.40058 27.0645 8.4169C27.0645 8.43321 27.0841 8.45851 27.1083 8.473C27.1323 8.48748 27.1396 8.49946 27.1245 8.49963C27.1095 8.49996 27.1226 8.51778 27.1536 8.53958C27.1848 8.56122 27.2103 8.59169 27.2103 8.6075C27.2103 8.65927 27.7188 9.14136 27.8319 9.19679C27.8751 9.21793 27.9272 9.25672 27.9477 9.28269C27.984 9.3288 28.4635 9.60996 28.5061 9.60996C28.5178 9.60996 28.6069 9.64659 28.704 9.69137C28.853 9.75995 29.1931 9.87265 29.331 9.89912C29.3518 9.90311 29.4019 9.91426 29.442 9.92375C29.6476 9.97286 30.6672 10.0155 30.6672 9.97519C30.6672 9.96504 30.7099 9.95555 30.7621 9.95438C30.8445 9.95222 31.0302 9.92575 31.1193 9.90328C31.1354 9.89928 31.1879 9.88613 31.2361 9.87398C31.2842 9.86183 31.34 9.83969 31.36 9.82471C31.3801 9.80956 31.3966 9.80456 31.3966 9.81339C31.3966 9.82221 31.4522 9.81122 31.5205 9.78875C31.6584 9.74364 31.6861 9.73248 31.9362 9.62078C32.0325 9.57784 32.1296 9.53988 32.152 9.53639C32.1746 9.53306 32.2008 9.51957 32.2105 9.50642C32.2201 9.49327 32.2805 9.45382 32.3445 9.41853C32.6298 9.26188 33.3219 8.65611 33.3219 8.56289C33.3219 8.5489 33.3543 8.50862 33.3939 8.47316C33.4336 8.43787 33.459 8.39809 33.4506 8.3851C33.442 8.37212 33.4556 8.36146 33.4805 8.36146C33.5055 8.36146 33.526 8.34299 33.526 8.32051C33.526 8.29821 33.5839 8.18667 33.6548 8.07281C33.7774 7.87555 33.8288 7.77067 33.8332 7.70941C33.8342 7.6941 33.8509 7.65448 33.8699 7.62135C33.8892 7.58823 33.9107 7.53196 33.9176 7.4965C33.9246 7.46104 33.9326 7.42575 33.9358 7.4181C33.9389 7.41044 33.9398 7.39479 33.9379 7.38347C33.9361 7.37198 33.945 7.36266 33.958 7.36266C33.9708 7.36266 33.9844 7.31422 33.9881 7.25513C33.9918 7.1962 34.0075 7.10564 34.0231 7.05403C34.1174 6.74124 34.0744 5.90125 33.9422 5.47593C33.9162 5.39203 33.892 5.31013 33.8889 5.29381C33.8719 5.20975 33.5738 4.66357 33.4935 4.56918C33.4586 4.5284 33.4591 4.52524 33.497 4.54555C33.5279 4.56203 33.5258 4.55354 33.49 4.51608C33.4619 4.48712 33.3624 4.36976 33.2687 4.25523C33.1749 4.14087 33.0272 3.98805 32.9402 3.91597C32.8534 3.84372 32.7461 3.75383 32.702 3.71588C32.6578 3.67809 32.6216 3.65595 32.6213 3.66677C32.6211 3.67759 32.6111 3.67243 32.5994 3.65528C32.5584 3.59569 32.0809 3.32152 31.907 3.25776C31.8107 3.22247 31.7057 3.18385 31.6736 3.1722C31.0855 2.95729 30.3789 2.88138 29.6931 2.95929C29.4346 2.98875 28.8078 3.16504 28.7226 3.23229C28.7011 3.24927 28.6836 3.25493 28.6836 3.24494C28.6836 3.23495 28.654 3.24211 28.6179 3.26109C28.5817 3.2799 28.5329 3.29838 28.5091 3.30221C28.4852 3.30587 28.4611 3.32202 28.4555 3.33816C28.4499 3.35431 28.4201 3.36746 28.3893 3.36746C28.3585 3.36746 28.3335 3.37712 28.3335 3.3891C28.3335 3.40109 28.2941 3.43305 28.246 3.46002L28.1585 3.50929V0.0397915H26.4372V3.44021ZM15.4977 9.77643H17.248V0.0797436H15.4977V9.77643ZM18.8956 0.0945591C18.8865 0.108709 18.9558 0.190444 19.1539 0.398694C19.2049 0.45213 19.2463 0.50207 19.2463 0.509727C19.2463 0.517385 19.2726 0.549679 19.3046 0.581474C19.3368 0.613269 19.4089 0.692008 19.4651 0.756597C19.5213 0.82102 19.5836 0.890936 19.6038 0.911744C19.6237 0.932553 19.6402 0.957356 19.6402 0.966845C19.6402 0.976333 19.6858 1.02894 19.7419 1.0837C19.7977 1.13847 19.8992 1.25333 19.9675 1.3389C20.0356 1.42463 20.1178 1.51985 20.1502 1.55048C20.1826 1.58127 20.2484 1.65535 20.2965 1.71511C20.3447 1.77471 20.4037 1.84362 20.4278 1.8681C20.452 1.89257 20.5101 1.96115 20.557 2.02041C20.6415 2.12712 20.8237 2.33187 20.9778 2.49351C21.0215 2.53929 21.06 2.58607 21.0635 2.59739C21.0705 2.62036 21.1619 2.7249 21.2737 2.83793C21.4255 2.99125 21.4321 3.02987 21.3098 3.05034C21.0082 3.10078 20.5043 3.23279 20.4793 3.26791C20.4675 3.28456 20.4577 3.28839 20.4574 3.27657C20.4572 3.26475 20.4143 3.27657 20.3622 3.30304C20.31 3.32951 20.2589 3.34898 20.2484 3.34632C20.2381 3.34366 20.1212 3.40359 19.9887 3.47933C19.856 3.55507 19.7364 3.61716 19.723 3.61716C19.7095 3.61716 19.6984 3.62965 19.6984 3.6448C19.6984 3.66011 19.6886 3.66977 19.6766 3.6661C19.6647 3.66261 19.6284 3.68042 19.5964 3.70556C19.5644 3.73086 19.4462 3.82375 19.3339 3.91231C19.2215 4.0007 19.1198 4.08793 19.1077 4.10641C19.0871 4.1377 18.9509 4.28203 18.8222 4.40888C18.7907 4.43984 18.765 4.4748 18.765 4.48628C18.765 4.49777 18.7519 4.52241 18.7356 4.54072C18.6432 4.64643 18.444 4.95322 18.4277 5.01498C18.4172 5.05493 18.3969 5.08756 18.3826 5.08756C18.3684 5.08756 18.3567 5.11187 18.3567 5.14133C18.3567 5.17096 18.3426 5.20359 18.3255 5.21358C18.3083 5.22373 18.3015 5.25003 18.3104 5.27217C18.3194 5.29431 18.3152 5.30563 18.301 5.29731C18.2522 5.26851 18.0759 6.04758 18.0563 6.37768C18.0425 6.6114 18.0973 7.12911 18.1494 7.25862C18.1662 7.30057 18.1737 7.33486 18.1659 7.33486C18.158 7.33486 18.1694 7.37548 18.1912 7.42509C18.2129 7.4747 18.2394 7.55893 18.2501 7.61236C18.2607 7.66563 18.3208 7.80313 18.3834 7.9175C18.4459 8.03203 18.5259 8.17868 18.5607 8.24344C18.5957 8.30836 18.6364 8.36146 18.6509 8.36146C18.6656 8.36146 18.6775 8.38011 18.6775 8.40308C18.6775 8.42589 18.6875 8.4447 18.6995 8.4447C18.7116 8.4447 18.7382 8.47899 18.7585 8.52094C18.8025 8.61116 19.2975 9.11056 19.3431 9.11056C19.3605 9.11056 19.3851 9.12621 19.3981 9.14536C19.4109 9.1645 19.4739 9.21727 19.5381 9.26238C19.6022 9.30766 19.6802 9.36692 19.7112 9.39406C19.7424 9.42119 19.7795 9.4435 19.7937 9.4435C19.8078 9.4435 19.8392 9.46231 19.8633 9.48528C19.8877 9.50842 19.9181 9.5209 19.9312 9.51325C19.9442 9.50559 19.9624 9.51791 19.9717 9.54071C19.981 9.56352 20.0053 9.58216 20.0258 9.58233C20.0464 9.58233 20.1485 9.62378 20.2528 9.67439C20.4156 9.75346 20.6967 9.8555 20.7924 9.87048C20.8085 9.87298 20.8362 9.88363 20.8538 9.89429C20.8845 9.91243 21.0838 9.94639 21.1936 9.95205C21.2216 9.95355 21.2447 9.96437 21.2447 9.97602C21.2447 10.035 22.6742 9.97453 22.8004 9.91027C22.8315 9.89429 22.8972 9.87531 22.9462 9.86799C23.2101 9.82837 23.9911 9.44766 24.2493 9.23258C24.2734 9.21244 24.3338 9.15817 24.3837 9.11173C24.4336 9.06528 24.4858 9.02733 24.4996 9.02733C24.5307 9.02733 24.6578 8.889 24.6578 8.85487C24.6578 8.84105 24.6709 8.83756 24.6869 8.84688C24.703 8.85637 24.7161 8.85271 24.7161 8.83889C24.7161 8.82491 24.7562 8.77114 24.805 8.7192C24.9587 8.5564 24.9697 8.54325 25.0037 8.48149C25.0217 8.44836 25.053 8.40408 25.0733 8.38327C25.2176 8.23345 25.5249 7.58972 25.5736 7.33486C25.5809 7.29674 25.5899 7.25929 25.5935 7.25163C25.5972 7.24397 25.6032 7.22533 25.6068 7.21001C25.6107 7.1947 25.617 7.17605 25.621 7.1684C25.6585 7.09665 25.6846 6.06539 25.6495 6.04475C25.6357 6.03659 25.6305 5.99897 25.6376 5.96101C25.6448 5.92323 25.6385 5.8921 25.6236 5.8921C25.6086 5.8921 25.5997 5.87112 25.6037 5.84532C25.6077 5.81952 25.5857 5.7228 25.555 5.63024C25.5242 5.53785 25.495 5.4433 25.4897 5.4205C25.4731 5.34758 25.269 4.93741 25.241 4.9211C25.2263 4.91244 25.1939 4.85884 25.1691 4.80224C25.1441 4.74547 25.1085 4.6992 25.0901 4.6992C25.0716 4.6992 25.0651 4.69087 25.0758 4.68072C25.0971 4.66041 24.9794 4.50393 24.8553 4.3879C24.8108 4.34645 24.7744 4.30384 24.7744 4.29318C24.7744 4.28253 24.7557 4.25406 24.7326 4.22976C24.5882 4.07811 24.422 3.89133 24.3359 3.78363C24.1891 3.60002 23.8935 3.27174 23.8653 3.26109C23.852 3.25593 23.8409 3.23862 23.8409 3.2223C23.8409 3.20616 23.7851 3.13491 23.717 3.06399C23.6488 2.99308 23.5535 2.88637 23.5054 2.82661C23.4165 2.71641 23.322 2.61004 23.2464 2.53513C23.2233 2.51216 23.163 2.44357 23.1126 2.38248C23.0622 2.32138 22.9894 2.23332 22.9507 2.18655C22.9122 2.13994 22.8506 2.07052 22.8139 2.03256C22.7771 1.99444 22.7143 1.92253 22.674 1.87259C22.6339 1.82265 22.5683 1.74724 22.5282 1.70479C22.4881 1.66234 22.4225 1.58627 22.3824 1.5355C22.2903 1.41897 22.1766 1.28696 22.1198 1.23086C22.0957 1.20706 22.0367 1.13831 21.9886 1.07804C21.9404 1.01762 21.8583 0.926393 21.8062 0.874955C21.754 0.823683 21.7113 0.771746 21.7113 0.75976C21.7113 0.738119 21.6228 0.639238 21.3543 0.361572C21.2781 0.282833 21.2158 0.208089 21.2156 0.195604C21.2146 0.0975555 21.1509 0.0917292 20.0177 0.0855699C19.4058 0.082407 18.901 0.0864022 18.8956 0.0945591ZM38.4206 2.93864C38.4134 2.94563 38.3047 2.95795 38.1792 2.96611C38.0537 2.97443 37.9416 2.98659 37.9298 2.99358C37.9183 3.0004 37.8579 3.01339 37.7959 3.02254C37.6741 3.04035 37.1381 3.20099 37.1142 3.2268C37.1061 3.23545 37.0799 3.24627 37.0559 3.25077C36.9692 3.26692 36.6957 3.39959 36.5346 3.50363C36.4443 3.56206 36.3603 3.61117 36.3479 3.613C36.3244 3.61633 36.2499 3.67609 36.0614 3.84272C35.9987 3.89816 35.9474 3.93911 35.9474 3.93378C35.9474 3.92396 35.8053 4.06146 35.6966 4.17666C35.5788 4.30134 35.3633 4.56036 35.3773 4.56036C35.385 4.56036 35.3526 4.61979 35.3052 4.6922C35.2142 4.83137 35.0691 5.10571 35.0602 5.15531C35.0572 5.17146 35.0385 5.21308 35.0183 5.2477C34.9984 5.28233 34.99 5.32295 34.9996 5.33776C35.0094 5.35274 35.0049 5.36506 34.9896 5.36506C34.9607 5.36506 34.9292 5.45745 34.9091 5.60078C34.9028 5.64656 34.8907 5.71531 34.8823 5.75343C34.8209 6.03592 34.805 6.39682 34.8402 6.71028C34.8608 6.89356 34.8769 7.07168 34.8759 7.10597C34.875 7.14026 34.8874 7.1684 34.9037 7.1684C34.9198 7.1684 34.9257 7.19503 34.9168 7.22766C34.8878 7.33336 35.2208 8.17119 35.3346 8.27823C35.3427 8.28572 35.378 8.34199 35.4132 8.40308C35.6092 8.74301 36.2196 9.31881 36.56 9.48461C36.616 9.51208 36.6685 9.54321 36.6766 9.55403C36.7261 9.62078 37.4634 9.90128 37.668 9.93124C37.7243 9.9394 37.8034 9.95355 37.8435 9.96254C38.06 10.0108 39.3667 9.97736 39.461 9.92109C39.478 9.91094 39.5242 9.89845 39.5639 9.89312C39.6037 9.88796 39.6507 9.87215 39.6688 9.858C39.6866 9.84385 39.7096 9.84019 39.7195 9.84968C39.7297 9.85933 39.7712 9.84635 39.8118 9.82104C39.8524 9.79574 39.8856 9.78209 39.8856 9.79058C39.8856 9.79907 39.915 9.79058 39.9513 9.77177C39.9873 9.75279 40.0335 9.73481 40.0538 9.73148C40.0741 9.72832 40.1625 9.6872 40.2502 9.64009C40.3381 9.59298 40.4277 9.55436 40.4498 9.55436C40.4716 9.55436 40.525 9.52323 40.5684 9.48511C40.6117 9.44699 40.657 9.4157 40.6691 9.4157C40.692 9.4157 40.8494 9.29934 40.9414 9.21461C40.9705 9.1878 41.0009 9.166 41.0095 9.166C41.0256 9.166 41.2061 9.01734 41.2838 8.93993C41.5176 8.70705 41.7237 8.47266 41.7482 8.41174C41.7592 8.38444 41.6976 8.32884 41.483 8.17319C41.4067 8.11792 41.3442 8.06182 41.3442 8.04884C41.3442 8.03585 41.3319 8.03236 41.3169 8.04135C41.3018 8.05017 41.2787 8.04151 41.2658 8.0222C41.2383 7.98125 40.8751 7.69992 40.6514 7.54628C40.567 7.48851 40.4982 7.43108 40.4982 7.41876C40.4982 7.35434 40.4072 7.37165 40.3684 7.44323C40.3447 7.48651 40.266 7.5829 40.193 7.65731C40.1202 7.73172 40.0605 7.79881 40.0605 7.80646C40.0603 7.81412 39.9882 7.86989 39.9 7.93048C39.8118 7.99107 39.7397 8.0525 39.7397 8.06698C39.7397 8.08147 39.7314 8.0853 39.7211 8.07547C39.711 8.06582 39.6682 8.08013 39.6262 8.10727C39.1514 8.41473 38.3443 8.47166 37.8006 8.23611C37.683 8.18501 37.5789 8.15072 37.5693 8.15987C37.5596 8.16903 37.5518 8.16187 37.5518 8.14406C37.5518 8.12625 37.5321 8.11176 37.508 8.11176C37.484 8.11176 37.4642 8.09711 37.4642 8.0793C37.4642 8.06149 37.4567 8.05433 37.4473 8.06316C37.4039 8.10444 36.9677 7.68311 36.8418 7.47802C36.7534 7.3342 36.6183 6.97513 36.6183 6.88424C36.6183 6.87242 37.8658 6.86593 39.3903 6.86992L42.1621 6.87708L42.1497 6.33606C42.1278 5.39836 41.9531 4.90362 41.3587 4.09609C41.2967 4.01185 41.1284 3.85321 41.1074 3.85937C41.0951 3.86287 41.078 3.84406 41.069 3.81775C41.0433 3.74168 40.3192 3.24777 40.2357 3.2491C40.2093 3.2496 40.1356 3.22513 40.0022 3.17186C39.6201 3.01905 38.5085 2.85524 38.4206 2.93864ZM59.9808 2.93681C59.9752 2.94197 59.905 2.94963 59.8246 2.95346C59.7445 2.95745 59.6475 2.97144 59.609 2.98459C59.5707 2.99757 59.474 3.01455 59.3944 3.02204C59.3148 3.02953 59.1756 3.061 59.0849 3.09179C58.9944 3.12276 58.8572 3.1652 58.7802 3.18618C58.703 3.20732 58.5784 3.25526 58.503 3.29288C58.2222 3.43322 58.1616 3.46484 58.1473 3.47833C58.1144 3.50962 57.9443 3.61716 57.9276 3.61716C57.9178 3.61716 57.8926 3.63264 57.8716 3.65179C57.8506 3.67093 57.8086 3.70289 57.7781 3.72287C57.5476 3.87402 56.8998 4.58217 56.9215 4.65924C56.9245 4.67006 56.9145 4.68671 56.8993 4.69603C56.8218 4.74348 56.533 5.41866 56.4953 5.64007C56.4866 5.69234 56.4668 5.76641 56.4514 5.80487C56.4239 5.87362 56.4006 6.07854 56.383 6.40548C56.3733 6.58693 56.4232 7.11829 56.4519 7.1406C56.4619 7.14825 56.4719 7.18571 56.4742 7.22383C56.4857 7.41077 56.7698 8.14805 56.8696 8.2501C56.8997 8.28073 56.917 8.30586 56.9081 8.30586C56.8993 8.30586 56.9611 8.40241 57.0456 8.52011C57.2039 8.74101 57.6105 9.166 57.6633 9.166C57.6798 9.166 57.7199 9.1953 57.7526 9.23092C57.7851 9.26671 57.8706 9.33113 57.9425 9.37408C58.0143 9.41703 58.0908 9.46897 58.1123 9.48944C58.148 9.5234 58.1721 9.53089 58.2243 9.52423C58.2345 9.52307 58.2509 9.53389 58.2607 9.54837C58.2982 9.60397 58.8789 9.84884 59.037 9.87564C59.1325 9.89179 59.212 9.91044 59.212 9.9166C59.212 9.91976 59.2449 9.92608 59.285 9.93075C59.3251 9.93541 59.4105 9.94922 59.4746 9.96171C59.6729 9.99999 60.7439 9.98901 60.8603 9.94756C60.9165 9.92742 61.008 9.90528 61.0639 9.89812C61.3087 9.86699 62.1729 9.50725 62.173 9.43651C62.173 9.42502 62.1895 9.41553 62.2094 9.4152C62.2296 9.41503 62.3115 9.35877 62.3916 9.29035C62.4718 9.22193 62.5488 9.166 62.5627 9.166C62.5767 9.166 62.6304 9.12222 62.6819 9.06878C62.7333 9.01518 62.7844 8.97989 62.7951 8.99004C62.8059 9.00036 62.8149 8.99171 62.8149 8.9709C62.8149 8.94992 62.8739 8.87984 62.9462 8.81492C63.0183 8.75 63.0774 8.69023 63.0774 8.68208C63.0774 8.66526 63.1557 8.57171 63.2266 8.50363C63.3128 8.42073 63.3078 8.27823 63.2183 8.27823C63.2006 8.27823 63.1581 8.2501 63.1238 8.2158C63.0895 8.18135 63.023 8.12841 62.9759 8.09778C62.9288 8.06732 62.855 8.00805 62.8117 7.9661C62.7685 7.92415 62.7186 7.8897 62.7009 7.8897C62.6834 7.8897 62.6689 7.87821 62.6689 7.86406C62.6689 7.8336 62.1578 7.4459 62.1176 7.4459C62.1021 7.4459 62.081 7.4712 62.0706 7.50216C62.0253 7.63783 61.5209 8.04934 61.3854 8.06099C61.3773 8.06182 61.338 8.08413 61.2979 8.11076C60.8862 8.38477 59.8469 8.45185 59.3905 8.23378C59.3085 8.19466 59.2412 8.1632 59.2412 8.16403C59.2412 8.16487 59.2117 8.15821 59.1756 8.14939C59.1395 8.1404 59.11 8.12192 59.11 8.10843C59.11 8.09495 59.0921 8.08396 59.0704 8.08396C58.964 8.08396 58.5422 7.70492 58.4329 7.51098C58.3335 7.33453 58.2056 7.01042 58.2056 6.93484V6.86326L63.7046 6.86293L63.7021 6.46774C63.7007 6.25033 63.6967 6.06622 63.693 6.05856C63.6895 6.05091 63.6823 5.98232 63.6771 5.90608C63.6668 5.75409 63.6423 5.60561 63.5994 5.43431C63.5841 5.37339 63.5656 5.29848 63.5582 5.26785C63.5196 5.10704 63.3258 4.68005 63.2593 4.6088C63.2343 4.582 63.222 4.55237 63.2318 4.54305C63.254 4.52191 63.0585 4.24591 62.935 4.12372C62.8849 4.07428 62.8439 4.02484 62.8439 4.01385C62.8439 3.98256 62.4911 3.67259 62.3768 3.60351C62.3204 3.56939 62.2565 3.52094 62.2346 3.49597C62.2129 3.471 62.1848 3.45069 62.172 3.45069C62.1594 3.45069 62.0801 3.40741 61.9957 3.35464C61.9115 3.30187 61.8315 3.26525 61.8182 3.27307C61.8048 3.28107 61.7937 3.27424 61.7937 3.25809C61.7937 3.24195 61.7734 3.22863 61.7484 3.22863C61.7236 3.22863 61.6479 3.20482 61.5807 3.17586C61.3807 3.08946 60.9557 2.98975 60.6707 2.96245C60.4484 2.94114 59.9942 2.92416 59.9808 2.93681ZM67.2231 2.9493C67.2017 2.96195 67.1597 2.96611 67.13 2.95879C67.0825 2.9468 66.9926 2.95812 66.6218 3.02204C66.3777 3.06416 65.7517 3.25277 65.7369 3.28872C65.7314 3.30171 65.716 3.30587 65.7027 3.29805C65.6893 3.29005 65.6609 3.29938 65.6395 3.31852C65.6182 3.33783 65.5417 3.38411 65.4694 3.4214C65.3973 3.45869 65.3234 3.5023 65.3052 3.51845C65.2872 3.53459 65.2421 3.56656 65.2049 3.58936C65.1355 3.63231 64.8892 3.86287 64.7812 3.98622C64.6637 4.12039 64.4852 4.52391 64.4488 4.73715C64.4119 4.95322 64.4112 5.40468 64.4474 5.53153C64.4628 5.5848 64.4829 5.67219 64.4926 5.72563C64.502 5.77906 64.5419 5.88977 64.5811 5.97183C64.6205 6.05374 64.6527 6.13164 64.6527 6.14479C64.6527 6.1939 64.8165 6.38184 64.9727 6.51202C65.2118 6.71128 65.2575 6.74274 65.3609 6.7797C65.4125 6.79801 65.5403 6.84811 65.6445 6.8909C65.9011 6.99594 66.1044 7.05586 66.2509 7.06985C66.318 7.07617 66.3864 7.08932 66.4032 7.09915C66.4312 7.11563 66.4855 7.12312 66.8406 7.15974C66.9127 7.16723 67.0834 7.17822 67.2197 7.18404C68.0697 7.221 68.8826 7.38031 68.8826 7.50982C68.8826 7.5223 68.8978 7.52347 68.9163 7.51248C68.9358 7.501 68.9421 7.50483 68.9312 7.52164C68.9209 7.53745 68.9309 7.56509 68.9536 7.58306C69.1596 7.7457 68.9496 8.14406 68.5649 8.32018C68.2948 8.44386 68.2876 8.4457 67.9199 8.48881C67.7123 8.51311 67.2392 8.49863 67.0603 8.46234C66.9484 8.4397 66.8483 8.42622 66.8376 8.43254C66.7953 8.45735 66.1319 8.19799 66.082 8.13723C66.074 8.12741 66.0216 8.09728 65.9655 8.07015C65.823 8.0014 65.663 7.87971 65.4309 7.6633L65.2321 7.47769L64.9933 7.70858C64.0979 8.57471 64.1168 8.5539 64.1595 8.62981C64.2213 8.73968 64.5403 9.01102 64.886 9.24773C64.9742 9.30816 65.0597 9.36792 65.0756 9.38057C65.1482 9.43784 65.3161 9.52457 65.3296 9.51175C65.3378 9.50392 65.3611 9.51658 65.3814 9.53988C65.4017 9.56319 65.4495 9.58216 65.4876 9.58216C65.5258 9.58216 65.5569 9.59448 65.5569 9.6093C65.5569 9.62428 65.5932 9.64476 65.6373 9.65474C65.6814 9.6649 65.7306 9.68171 65.7467 9.6922C65.7787 9.71351 66.112 9.8287 66.1921 9.84635C66.2198 9.85251 66.3267 9.87698 66.4296 9.90095C66.954 10.0226 68.321 10.0093 68.6492 9.87947C68.6893 9.86366 68.7345 9.8535 68.7497 9.85683C68.7882 9.86566 69.0947 9.75795 69.3201 9.65657C69.4244 9.60946 69.5174 9.57051 69.5267 9.56968C69.5666 9.56635 69.7577 9.45665 69.7577 9.43717C69.7577 9.42535 69.7745 9.4157 69.7952 9.4157C69.8156 9.4157 69.878 9.37491 69.9336 9.32497C69.9893 9.27503 70.0841 9.19946 70.1444 9.15701C70.2044 9.11456 70.2538 9.06179 70.2538 9.03982C70.2538 9.01768 70.2639 8.99953 70.2765 8.99953C70.2891 8.99953 70.3208 8.96524 70.3469 8.92329C70.3731 8.88134 70.4211 8.81775 70.4536 8.78212C70.5336 8.69456 70.6987 8.31202 70.6733 8.27307C70.6602 8.25276 70.6663 8.2496 70.6913 8.26441C70.7199 8.28106 70.7255 8.27157 70.7132 8.22712C70.7041 8.19416 70.7085 8.16037 70.7228 8.15188C70.7486 8.1369 70.7402 7.3853 70.7127 7.25163C70.6817 7.10064 70.6544 7.02973 70.6273 7.02973C70.6117 7.02973 70.6045 7.01408 70.6115 6.99494C70.6183 6.97596 70.5931 6.91686 70.5555 6.86376C70.5179 6.81049 70.4871 6.75656 70.4871 6.74374C70.4871 6.73092 70.4706 6.70379 70.4507 6.68331C70.4305 6.66284 70.3814 6.60524 70.3413 6.5553C70.3012 6.50536 70.2552 6.45392 70.2391 6.4411C70.2231 6.42812 70.1643 6.38001 70.1087 6.33406C69.9966 6.24184 69.6693 6.06056 69.5878 6.04574C69.5592 6.04042 69.4882 6.01728 69.4299 5.99414C69.1521 5.88361 68.3848 5.73179 68.1315 5.73695C68.0632 5.73845 68.0042 5.73179 68.0002 5.7223C67.9962 5.71281 67.8814 5.69566 67.7448 5.68434C67.6085 5.67303 67.451 5.65888 67.3948 5.65305C67.3386 5.64739 67.2402 5.63807 67.176 5.63241C66.5271 5.57614 66.1604 5.38687 66.1645 5.1107C66.1662 4.98086 66.2361 4.82371 66.3026 4.79941C66.3278 4.79025 66.3402 4.77011 66.3302 4.7548C66.3203 4.73948 66.3294 4.72683 66.3505 4.72683C66.3717 4.72683 66.4244 4.6957 66.4676 4.65758C66.5109 4.61946 66.5576 4.58816 66.5712 4.58816C66.5851 4.58816 66.6479 4.56452 66.7111 4.53573C67.1982 4.31299 68.0151 4.3626 68.679 4.65525C68.7648 4.69304 68.8477 4.71634 68.8633 4.70719C68.8789 4.69803 68.8824 4.70486 68.8708 4.72267C68.8587 4.74115 68.8677 4.75463 68.892 4.75463C68.9524 4.75463 69.3016 4.98568 69.5295 5.17629L69.7239 5.33909L69.792 5.27118C69.9427 5.12069 70.0407 5.01299 70.1181 4.9136C70.1627 4.85601 70.228 4.77993 70.263 4.74464C70.3194 4.68788 70.5137 4.47846 70.6891 4.28569C70.7904 4.17416 70.7769 4.14353 70.5601 3.99071C70.4283 3.89782 70.427 3.89683 70.2716 3.7833C70.2091 3.73768 70.1479 3.70039 70.1351 3.70039C70.1223 3.70039 70.0946 3.68475 70.0735 3.6656C69.918 3.5256 69.1523 3.17336 68.9118 3.13125C68.9037 3.12991 68.825 3.10844 68.7367 3.08347C68.558 3.03303 68.2584 2.97776 68.0804 2.96228C67.786 2.93665 67.2581 2.92882 67.2231 2.9493ZM0.753467 3.1975C0.731238 3.23179 0.821205 3.51079 0.871964 3.56506C0.895244 3.58986 0.911522 3.62116 0.908196 3.63447C0.905046 3.64779 0.912222 3.68375 0.924299 3.71421C0.947578 3.77347 0.947753 3.77381 1.0876 4.0851C1.13801 4.19746 1.18527 4.32098 1.19262 4.35944C1.19998 4.39789 1.24478 4.50826 1.29222 4.60464C1.33965 4.70119 1.37851 4.79325 1.37851 4.80923C1.37851 4.82538 1.40616 4.89762 1.44012 4.96987C1.47408 5.04228 1.52081 5.14516 1.54374 5.1986C1.56667 5.25203 1.59887 5.31878 1.61533 5.34692C1.63161 5.37505 1.63808 5.40485 1.6295 5.413C1.62093 5.42116 1.62933 5.45429 1.64823 5.48658C1.66714 5.51888 1.68429 5.5515 1.68622 5.55916C1.69322 5.58646 1.73575 5.68601 1.78861 5.79887C1.81819 5.86213 1.8511 5.94653 1.8616 5.98648C1.87227 6.02643 1.89258 6.06605 1.90676 6.07438C1.92111 6.0827 1.93266 6.10767 1.93266 6.12981C1.93266 6.15178 1.96557 6.23452 2.00565 6.31359C2.04573 6.39266 2.07864 6.48389 2.07864 6.51601C2.07864 6.54831 2.09001 6.58659 2.10384 6.60108C2.11767 6.61556 2.16545 6.7211 2.21009 6.83546C2.25455 6.94999 2.30828 7.07484 2.32946 7.11296C2.38004 7.20402 2.50764 7.52247 2.53215 7.61919C2.543 7.66114 2.5612 7.6956 2.57275 7.6956C2.58448 7.6956 2.59393 7.71208 2.59393 7.73222C2.59393 7.76418 2.73063 8.08962 2.85456 8.35231C2.87731 8.40058 2.90409 8.47866 2.91389 8.5256C2.92369 8.57271 2.9433 8.61116 2.95748 8.61116C2.97148 8.61116 2.98286 8.64163 2.98286 8.67875C2.98286 8.71604 2.99598 8.75432 3.01209 8.76365C3.02819 8.77314 3.04132 8.8051 3.04132 8.83473C3.04132 8.86436 3.05514 8.8885 3.07212 8.8885C3.0891 8.8885 3.0968 8.89799 3.08927 8.90964C3.08175 8.92129 3.09628 8.97423 3.12148 9.0275C3.14669 9.08077 3.16961 9.13071 3.17242 9.1382C3.18572 9.17499 3.2496 9.32481 3.27288 9.37408C3.28741 9.40454 3.32977 9.50759 3.36705 9.60297L3.43479 9.77643H4.66317L4.70377 9.67239C4.72618 9.61512 4.74771 9.55586 4.75173 9.54055C4.76276 9.4976 4.89088 9.21727 4.94199 9.12438C4.9672 9.0786 4.9826 9.0275 4.9763 9.01068C4.96982 8.99387 4.98488 8.96424 5.00938 8.94476C5.03406 8.92545 5.05419 8.89266 5.05419 8.87202C5.05419 8.83473 5.19456 8.47816 5.27175 8.31985C5.35664 8.14539 5.52433 7.75403 5.52713 7.72323C5.53063 7.68328 5.63617 7.43657 5.83413 7.00543C5.85776 6.95382 5.88034 6.89755 5.88419 6.88058C5.88804 6.86343 5.9045 6.81815 5.9206 6.78003C5.93688 6.74191 5.97713 6.64186 6.01022 6.55796C6.04312 6.47406 6.09668 6.34971 6.12906 6.28179C6.16144 6.21388 6.1814 6.14829 6.17352 6.13614C6.16564 6.12398 6.17055 6.11416 6.1842 6.11416C6.19803 6.11416 6.22638 6.06905 6.24738 6.01378L6.28554 5.91357L6.35853 6.07621C6.39861 6.16577 6.43817 6.2733 6.44622 6.31525C6.45445 6.3572 6.47265 6.3915 6.48683 6.3915C6.50118 6.3915 6.51116 6.40098 6.50923 6.4123C6.50731 6.42379 6.50906 6.4426 6.51291 6.45392C6.51676 6.46541 6.52289 6.48422 6.52621 6.49554C6.54774 6.56812 6.7324 6.99677 6.83409 7.21001C6.84862 7.24048 6.88223 7.33103 6.90883 7.4111C6.93526 7.49134 6.96939 7.55676 6.98462 7.55676C6.99967 7.55676 7.00422 7.56908 6.99442 7.58406C6.9848 7.59888 6.9932 7.6395 7.01315 7.67412C7.03328 7.70875 7.05271 7.7497 7.05638 7.76485C7.06023 7.78016 7.12325 7.93231 7.19641 8.10311C7.26957 8.2739 7.32961 8.42672 7.32961 8.44303C7.32961 8.45918 7.34344 8.47233 7.36042 8.47233C7.37739 8.47233 7.38422 8.48332 7.37547 8.4968C7.36129 8.51877 7.40312 8.62548 7.47734 8.75632C7.49221 8.78296 7.50464 8.81725 7.50464 8.83256C7.50464 8.84805 7.54875 8.95142 7.60249 9.06229C7.6564 9.17332 7.70978 9.29501 7.72098 9.33296C7.75599 9.45132 7.8372 9.62295 7.86766 9.64309C7.88359 9.65374 7.88744 9.67122 7.87588 9.68221C7.79782 9.75645 7.934 9.77643 8.52245 9.77643H9.12457L9.1951 9.60297C9.23379 9.50759 9.27614 9.41586 9.2891 9.39922C9.30205 9.38257 9.30415 9.36076 9.29347 9.35078C9.28297 9.34062 9.2905 9.33246 9.3101 9.33246C9.3297 9.33246 9.33793 9.32031 9.3283 9.3055C9.31868 9.29068 9.33023 9.25006 9.35386 9.21527C9.37749 9.18065 9.42527 9.07094 9.46028 8.97173C9.49511 8.87252 9.55305 8.72902 9.58893 8.65278C9.62481 8.57637 9.67049 8.47033 9.69045 8.4169C9.7104 8.36346 9.74611 8.28539 9.76974 8.24344C9.79319 8.20149 9.80509 8.15571 9.79617 8.14173C9.78706 8.12791 9.79354 8.1121 9.81052 8.1066C9.82767 8.10128 9.84448 8.0783 9.84798 8.05566C9.85165 8.03302 9.86233 8.00206 9.87178 7.98691C9.88123 7.9716 9.91869 7.87172 9.9551 7.76485C9.99133 7.65814 10.0311 7.55826 10.0431 7.54295C10.0757 7.50183 10.2537 7.07684 10.2551 7.03655C10.256 7.01758 10.2674 7.00193 10.2808 7.00193C10.2941 7.00193 10.3052 6.97679 10.3052 6.946C10.3052 6.91537 10.3167 6.86859 10.3309 6.84196C10.3451 6.81549 10.3862 6.71894 10.4226 6.62738C10.4588 6.53582 10.5176 6.39849 10.5532 6.32225C10.5889 6.24584 10.6272 6.15228 10.6386 6.11416C10.6575 6.05057 10.7132 5.92422 10.7762 5.80237C10.7898 5.7759 10.801 5.73445 10.801 5.71048C10.801 5.68651 10.8346 5.59578 10.8758 5.50889C11.0242 5.19576 11.174 4.84302 11.1964 4.75463C11.1983 4.74697 11.2104 4.71584 11.2234 4.68521C11.2362 4.65475 11.2855 4.53622 11.3328 4.4217C11.4478 4.14336 11.4711 4.08943 11.5187 3.99171C11.5411 3.94593 11.5911 3.82108 11.6302 3.71421C11.669 3.60734 11.7282 3.45153 11.7614 3.36779C11.7949 3.28406 11.822 3.20599 11.822 3.19434C11.822 3.18268 11.4044 3.1732 10.8938 3.1732H9.9656L9.8674 3.4159C9.81332 3.54941 9.75346 3.68375 9.73403 3.71421C9.71478 3.74468 9.68292 3.81775 9.66332 3.87635C9.64371 3.93511 9.60958 4.01635 9.58735 4.0568C9.56512 4.09725 9.54692 4.14619 9.54674 4.16567C9.54674 4.18515 9.50806 4.28186 9.46098 4.38074C9.4139 4.47946 9.38011 4.56036 9.38624 4.56036C9.39569 4.56036 9.27772 4.82571 9.1951 4.99051C9.17988 5.02098 9.11511 5.18611 9.0514 5.35724C8.93518 5.66936 8.9259 5.69117 8.83489 5.8568C8.80776 5.90608 8.7857 5.95252 8.7857 5.96035C8.7857 5.968 8.76487 6.02144 8.7395 6.07887C8.71429 6.13647 8.68961 6.20222 8.68471 6.22503C8.67981 6.248 8.67333 6.26981 8.67001 6.27364C8.66686 6.27747 8.66143 6.28995 8.65793 6.30144C8.6476 6.33656 8.60927 6.43028 8.58127 6.48871C8.56674 6.51918 8.52316 6.61906 8.4843 6.71061C8.41534 6.87375 8.41358 6.87541 8.39276 6.79385C8.3812 6.74807 8.36283 6.69813 8.35197 6.68281C8.31329 6.62854 8.17922 6.29295 8.16049 6.20405C8.15016 6.15428 8.13073 6.11999 8.1176 6.12781C8.1043 6.13564 8.10028 6.11699 8.10868 6.08636C8.11726 6.0554 8.10973 6.03093 8.09135 6.03093C8.0735 6.03093 8.05879 6.00662 8.05879 5.97699C8.05879 5.94736 8.04724 5.9164 8.03324 5.90808C8.01906 5.89975 8.00068 5.86463 7.99228 5.83017C7.98406 5.79555 7.91614 5.62991 7.84158 5.46211C7.76684 5.29431 7.69928 5.12602 7.69105 5.08839C7.68282 5.05077 7.66567 5.00699 7.65289 4.99134C7.64012 4.97553 7.59338 4.86916 7.5491 4.75463C7.50482 4.64027 7.43883 4.48412 7.40242 4.40788C7.36619 4.33147 7.32051 4.22543 7.3009 4.172C7.2813 4.11856 7.25487 4.04998 7.24209 4.01935C7.22932 3.98888 7.20219 3.9203 7.18206 3.86686C7.16193 3.81343 7.11677 3.70722 7.08176 3.63098C7.04693 3.55474 6.98742 3.4204 6.94979 3.33267L6.88118 3.1732H6.28764C5.78792 3.1732 5.69148 3.17969 5.6773 3.21465C5.6682 3.23745 5.65105 3.25044 5.63932 3.24361C5.62777 3.23679 5.61814 3.24627 5.61814 3.26475C5.61814 3.30137 5.44801 3.74268 5.40653 3.81326C5.37677 3.8642 5.18879 4.28702 5.18249 4.31765C5.18004 4.32914 5.17496 4.34778 5.17094 4.35927C5.16708 4.37076 5.16551 4.3894 5.16743 4.40089C5.16918 4.41237 5.15763 4.4217 5.1417 4.4217C5.1256 4.4217 5.11247 4.445 5.11247 4.47347C5.11247 4.52441 5.03931 4.71651 4.93657 4.93491C4.80127 5.2229 4.75261 5.34009 4.75261 5.37855C4.75261 5.40168 4.74176 5.4205 4.72845 5.4205C4.71498 5.4205 4.70622 5.42982 4.70867 5.4413C4.7113 5.45279 4.7036 5.48708 4.6917 5.51755C4.62151 5.69683 4.5739 5.81202 4.51369 5.9477C4.454 6.0817 4.41305 6.18008 4.39817 6.22503C4.39572 6.23269 4.37996 6.27014 4.36316 6.30826C4.33341 6.37635 4.26077 6.56712 4.19705 6.74524C4.15767 6.85527 4.14419 6.8571 4.10201 6.75922C4.06666 6.67749 4.02657 6.5806 4.0187 6.55796C4.0159 6.55031 3.98422 6.48172 3.94816 6.40548C3.85592 6.21055 3.79676 6.05756 3.77908 5.9685C3.77068 5.92655 3.7516 5.8921 3.73637 5.8921C3.72114 5.8921 3.71694 5.87961 3.72674 5.86446C3.73672 5.84915 3.73094 5.83666 3.71397 5.83666C3.69699 5.83666 3.68298 5.81719 3.68298 5.79321C3.68298 5.7506 3.60685 5.55667 3.51478 5.36506C3.48905 5.31163 3.46682 5.26169 3.46507 5.25403C3.46349 5.24637 3.44809 5.21524 3.43076 5.18461C3.41343 5.15415 3.39068 5.09455 3.38 5.05244C3.36285 4.98402 3.07335 4.29768 2.96588 4.07062C2.94312 4.02267 2.92457 3.96408 2.92457 3.94061C2.92457 3.91697 2.91144 3.89017 2.89534 3.88068C2.87941 3.87119 2.86628 3.84472 2.86628 3.82175C2.86628 3.79878 2.83093 3.70905 2.78804 3.62232C2.69563 3.43588 2.7049 3.45918 2.6769 3.34565C2.63472 3.17486 2.62456 3.1732 1.65086 3.1732C1.16602 3.1732 0.762219 3.18418 0.753467 3.1975ZM12.5806 9.77643H14.3019L14.2871 3.18701L12.5806 3.17236V9.77643ZM42.9778 9.77726L44.7136 9.76245L44.7195 8.33366C44.7248 7.09016 44.7337 6.82215 44.7748 6.68281C44.7794 6.66766 44.7893 6.63021 44.797 6.59958C44.8046 6.56912 44.8319 6.49737 44.8574 6.44027C44.883 6.38301 44.9031 6.32974 44.9024 6.32191C44.8851 6.15228 45.3787 5.57514 45.7387 5.34342C45.8933 5.24404 45.9971 5.19344 46.3181 5.06026C46.5841 4.94973 46.9256 4.88497 47.6016 4.81689L47.8058 4.79625L47.8213 3.16654L47.5365 3.18451C46.9856 3.21947 46.7973 3.23662 46.741 3.25759C46.7329 3.26059 46.7164 3.26142 46.7044 3.25959C46.6923 3.25776 46.5922 3.28007 46.4821 3.30903C45.937 3.45269 45.3535 3.81842 45.0013 4.23675C44.9479 4.30034 44.8798 4.37791 44.8501 4.40921C44.8201 4.44051 44.7811 4.49045 44.7629 4.52024C44.7377 4.56153 44.7297 4.40838 44.729 3.87369L44.7281 3.1732H42.9778V9.77726ZM48.36 9.76245L49.204 9.76994C49.8597 9.7756 50.0533 9.76944 50.0716 9.74214C50.0848 9.72283 50.0954 9.07028 50.0954 8.29205C50.0954 7.51381 50.1033 6.83962 50.1129 6.79385C50.141 6.66101 50.1494 6.62738 50.1544 6.62738C50.1571 6.62738 50.1634 6.58893 50.1686 6.54198C50.1796 6.44177 50.3804 6.04458 50.4879 5.91074C50.529 5.85947 50.5626 5.8072 50.5626 5.79455C50.5626 5.76242 50.8747 5.47593 50.9097 5.47593C50.9255 5.47593 50.9556 5.45412 50.9766 5.42732C51.1766 5.17196 52.1039 4.88014 52.8963 4.82355C53.2164 4.80057 53.19 4.87915 53.1813 3.9759L53.1734 3.18701L53.0131 3.18918C52.6303 3.194 52.2256 3.21614 52.2254 3.23229C52.2254 3.24195 52.1708 3.2506 52.1041 3.25143C52.0376 3.25243 51.9751 3.26459 51.9657 3.27857C51.956 3.29255 51.9252 3.30071 51.8972 3.29655C51.869 3.29238 51.8461 3.30004 51.8461 3.31353C51.8461 3.32701 51.8263 3.33067 51.8024 3.32202C51.7782 3.31319 51.7586 3.31769 51.7586 3.332C51.7586 3.34649 51.7422 3.3593 51.7222 3.36064C51.5999 3.36863 51.153 3.56239 51.1106 3.62565C51.0986 3.6438 51.0884 3.64829 51.0881 3.63547C51.0875 3.60534 50.8073 3.79578 50.6904 3.90598C50.6403 3.95309 50.5505 4.03516 50.4907 4.08843C50.4308 4.1417 50.3176 4.27171 50.2393 4.37742L50.0969 4.56968L50.0813 3.18701L48.3453 3.17553L48.36 9.76245ZM53.8445 9.77776L55.5801 9.77327V3.1732H53.8445V9.77776ZM22.3239 4.60514C22.4444 4.62978 22.5888 4.6699 22.6449 4.69437C22.701 4.71867 22.7535 4.73965 22.7615 4.74098C22.8165 4.74997 23.0825 4.89962 23.0825 4.9216C23.0825 4.93658 23.099 4.9489 23.1193 4.9489C23.1394 4.9489 23.1727 4.97437 23.1931 5.00533C23.2134 5.03646 23.2429 5.05444 23.2584 5.04545C23.274 5.03629 23.2866 5.04828 23.2866 5.07208C23.2866 5.09589 23.2992 5.11536 23.3146 5.11536C23.4814 5.11536 23.9297 5.93388 23.9391 6.25549C23.9412 6.33024 23.9537 6.3915 23.9666 6.3915C23.9796 6.3915 23.9831 6.40265 23.9741 6.4163C23.9654 6.42995 23.951 6.53283 23.9423 6.64519C23.9078 7.09249 23.4634 7.9175 23.2569 7.9175C23.2411 7.9175 23.2283 7.92715 23.2283 7.93897C23.2283 7.95079 23.18 7.98508 23.121 8.01521C23.062 8.04534 22.9992 8.08263 22.9814 8.09778C22.8949 8.17186 22.6157 8.28522 22.3532 8.35314C22.0365 8.43487 21.3735 8.39376 21.1281 8.27706C21.104 8.26558 21.0283 8.23428 20.9603 8.20748C20.892 8.18068 20.8362 8.14905 20.8362 8.13707C20.8362 8.12525 20.8087 8.1071 20.7751 8.09695C20.6858 8.06998 20.4549 7.91683 20.4371 7.87255C20.4287 7.85174 20.4098 7.84159 20.3954 7.85008C20.3809 7.85857 20.3606 7.84292 20.3503 7.81529C20.3399 7.78749 20.2974 7.73322 20.2558 7.6946C20.1359 7.58373 19.9783 7.357 19.9827 7.3019C19.9848 7.27427 19.9757 7.25163 19.9626 7.25163C19.9493 7.25163 19.9297 7.20752 19.919 7.15375C19.9069 7.09249 19.8877 7.06302 19.8675 7.07484C19.8499 7.08516 19.8425 7.0825 19.8513 7.06868C19.86 7.05487 19.849 6.96231 19.8266 6.86326C19.7504 6.52434 19.7781 6.11932 19.8947 5.86779C19.9321 5.78722 19.9489 5.73512 19.9589 5.6692C19.9643 5.63307 20.1686 5.34509 20.2286 5.28865C20.2654 5.25436 20.2836 5.22623 20.2694 5.22623C20.2551 5.22623 20.2939 5.18578 20.3555 5.13617C20.4171 5.08656 20.4999 5.01781 20.5395 4.98352C20.579 4.94923 20.6202 4.9211 20.6308 4.9211C20.6415 4.9211 20.6757 4.89929 20.7068 4.87249C20.7378 4.84585 20.7961 4.80956 20.8362 4.79175C20.8764 4.77411 20.9683 4.73382 21.0406 4.70236C21.1685 4.64676 21.5044 4.57185 21.7113 4.5527C21.8711 4.53806 22.0859 4.55637 22.3239 4.60514ZM30.8004 4.61663C30.8475 4.63361 30.886 4.64576 30.886 4.6436C30.886 4.64143 30.9254 4.65408 30.9735 4.67156C31.0216 4.68904 31.084 4.70502 31.1121 4.70719C31.1401 4.70918 31.1631 4.72084 31.1631 4.73282C31.1631 4.74481 31.1823 4.75463 31.206 4.75463C31.273 4.75463 31.5935 4.96205 31.7044 5.07741C31.7598 5.13467 31.8049 5.17246 31.8049 5.16131C31.8049 5.14999 31.8233 5.15698 31.8457 5.17662C31.8679 5.19626 31.8809 5.2209 31.8742 5.23139C31.8678 5.24171 31.8917 5.26984 31.9276 5.29381C31.9635 5.31762 31.9812 5.33726 31.9668 5.33726C31.9523 5.33726 31.9666 5.36539 31.9987 5.39969C32.1238 5.53419 32.3202 5.9477 32.2782 5.98765C32.2693 5.99614 32.274 6.00313 32.2887 6.00313C32.3214 6.00313 32.327 6.04857 32.3402 6.4193C32.3459 6.57944 32.3405 6.73675 32.3283 6.76871C32.3158 6.8005 32.2989 6.86293 32.2905 6.90738C32.2488 7.12678 32.2035 7.23099 32.044 7.47353C31.9238 7.65648 31.5543 8.00556 31.4282 8.05516C31.3787 8.07464 31.3381 8.10161 31.3381 8.11509C31.3381 8.12841 31.3194 8.1394 31.2964 8.1394C31.2735 8.1394 31.2341 8.15904 31.2089 8.18301C31.1837 8.20698 31.1631 8.2188 31.1631 8.20915C31.1631 8.19966 31.127 8.21081 31.0829 8.23412C30.8011 8.38227 30.1586 8.44853 29.8213 8.36379C29.6693 8.32567 29.2302 8.1652 29.2087 8.13973C29.2006 8.13041 29.1432 8.09329 29.0812 8.05749C28.9486 7.98075 28.6986 7.7795 28.7327 7.777C28.7459 7.776 28.7261 7.76368 28.689 7.74953C28.6517 7.73538 28.6291 7.71191 28.6384 7.69743C28.6479 7.68311 28.6382 7.66114 28.6169 7.64865C28.5957 7.63633 28.5364 7.56625 28.4851 7.49301C28.2276 7.12528 28.1347 6.72393 28.1943 6.23901C28.2318 5.93588 28.2316 5.93671 28.2533 5.90325C28.2638 5.88694 28.2803 5.832 28.2897 5.78106C28.3148 5.64539 28.3659 5.56249 28.5885 5.29581C28.8757 4.95156 29.18 4.76062 29.6608 4.62262C29.9499 4.53955 30.5785 4.53639 30.8004 4.61663ZM39.0542 4.60414C39.1505 4.62712 39.2686 4.66324 39.3168 4.68438C39.3649 4.70552 39.4666 4.7488 39.5427 4.7806C39.6191 4.81223 39.6814 4.85051 39.6814 4.86583C39.6814 4.88098 39.6929 4.8933 39.7071 4.8933C39.7211 4.8933 39.7867 4.94324 39.8529 5.00433C39.9191 5.06542 39.9661 5.11536 39.9574 5.11536C39.9488 5.11536 39.9697 5.14333 40.004 5.17779C40.0701 5.24404 40.1263 5.34975 40.1347 5.42366C40.1375 5.4483 40.1491 5.48259 40.1603 5.4999C40.1755 5.52337 39.7482 5.53153 38.5041 5.53153H36.8273L36.8982 5.4135C36.937 5.34875 36.9769 5.27384 36.9866 5.24704C36.9964 5.2204 37.0181 5.1986 37.0351 5.1986C37.0519 5.1986 37.0583 5.1916 37.0492 5.18295C37.0184 5.15365 37.5017 4.75463 37.5679 4.75463C37.585 4.75463 37.6524 4.73016 37.7173 4.70036C37.8257 4.65059 38.1334 4.57468 38.3103 4.5542C38.4658 4.53622 38.8874 4.56452 39.0542 4.60414ZM60.5622 4.59232C60.679 4.6098 60.7815 4.63477 60.7899 4.64776C60.7985 4.66074 60.8374 4.6714 60.8766 4.6714C60.9158 4.6714 60.9478 4.68288 60.9478 4.69686C60.9478 4.71101 60.9853 4.73032 61.0311 4.73981C61.1811 4.77128 61.6479 5.1951 61.6479 5.29997C61.6479 5.34492 61.7197 5.4756 61.7446 5.47576C61.7575 5.47593 61.76 5.48841 61.75 5.50373C61.7272 5.53885 58.4391 5.54218 58.4391 5.50706C58.4391 5.45429 58.531 5.2775 58.5856 5.22556C58.6172 5.19543 58.6386 5.1708 58.633 5.1708C58.595 5.1708 58.9747 4.83803 59.0477 4.8074C59.0981 4.78609 59.1392 4.76145 59.1392 4.75246C59.1392 4.74348 59.1555 4.73615 59.1756 4.73615C59.1957 4.73615 59.2603 4.71434 59.3191 4.68771C59.3781 4.66107 59.4437 4.6361 59.4651 4.63194C59.4863 4.62795 59.5367 4.61596 59.5768 4.60531C59.812 4.54305 60.1973 4.53806 60.5622 4.59232Z" fill="#E40CC4"/>
<path fill-rule="evenodd" clip-rule="evenodd" d="M15.9736 0.0865687C16.2113 0.0912298 16.592 0.0912298 16.8195 0.0865687C17.0472 0.0819076 16.8528 0.0780789 16.3875 0.0780789C15.9221 0.0780789 15.7359 0.0819076 15.9736 0.0865687ZM19.487 0.0865687C19.7798 0.0910633 20.2589 0.0910633 20.5517 0.0865687C20.8446 0.0820741 20.6051 0.0784118 20.0195 0.0784118C19.4338 0.0784118 19.1942 0.0820741 19.487 0.0865687ZM55.8136 1.83464C55.8136 1.85128 55.7779 1.90655 55.7343 1.95732C55.6692 2.03306 55.6671 2.03972 55.7224 1.99444C55.801 1.92985 55.8547 1.84362 55.8306 1.82065C55.8211 1.81166 55.8136 1.81816 55.8136 1.83464ZM5.59924 3.28739C5.52853 3.44254 5.55058 3.4492 5.62917 3.29638C5.664 3.22863 5.68325 3.17319 5.67188 3.17319C5.6605 3.17319 5.62794 3.22463 5.59924 3.28739ZM12.5655 6.47473C12.5655 8.28306 12.569 9.02284 12.5732 8.11859C12.5774 7.21451 12.5774 5.73512 12.5732 4.83087C12.569 3.92679 12.5655 4.66657 12.5655 6.47473ZM53.8439 6.46091C53.8439 8.26158 53.8474 8.99404 53.8516 8.08879C53.856 7.18338 53.856 5.71015 53.8516 4.81489C53.8474 3.91963 53.8439 4.66024 53.8439 6.46091ZM70.0495 3.6398C70.0495 3.65295 70.0824 3.67792 70.1225 3.69523C70.1626 3.71271 70.1953 3.72237 70.1953 3.71688C70.1953 3.71122 70.1626 3.68625 70.1225 3.66128C70.0824 3.63631 70.0495 3.62665 70.0495 3.6398ZM57.4307 4.01252L57.3451 4.10258L57.4398 4.02118C57.5282 3.94527 57.5482 3.92229 57.5256 3.92229C57.5205 3.92229 57.4778 3.96291 57.4307 4.01252ZM70.2391 4.77594C70.2231 4.78709 70.1839 4.82754 70.1521 4.86566C70.1038 4.92359 70.1097 4.92159 70.1885 4.85351C70.2737 4.77993 70.2968 4.7538 70.2756 4.75513C70.2716 4.75529 70.2552 4.76462 70.2391 4.77594ZM39.8126 5.00433C39.8753 5.06542 39.9371 5.11536 39.9499 5.11536C39.9626 5.11536 39.9191 5.06542 39.8529 5.00433C39.7867 4.94324 39.725 4.8933 39.7157 4.8933C39.7064 4.8933 39.75 4.94324 39.8126 5.00433ZM20.3284 5.15698C20.2818 5.1951 20.2566 5.22623 20.2724 5.22623C20.2881 5.22623 20.3317 5.1951 20.3695 5.15698C20.4574 5.06792 20.4373 5.06809 20.3284 5.15698ZM63.7007 6.55796C63.7007 6.71827 63.7056 6.78386 63.7116 6.70362C63.7173 6.62355 63.7173 6.49254 63.7116 6.4123C63.7056 6.33223 63.7007 6.39782 63.7007 6.55796ZM23.9285 6.47473C23.9285 6.52051 23.9335 6.55796 23.9397 6.55796C23.946 6.55796 23.9568 6.52051 23.9638 6.47473C23.971 6.42895 23.9659 6.3915 23.9526 6.3915C23.9393 6.3915 23.9285 6.42895 23.9285 6.47473ZM4.27127 6.48988C4.25254 6.52883 4.23784 6.57561 4.23854 6.59409C4.23906 6.6124 4.25902 6.58493 4.28265 6.53299C4.33253 6.42379 4.32203 6.384 4.27127 6.48988ZM39.3751 6.86326L36.6038 6.87758L39.366 6.88424C41.1838 6.88873 42.1346 6.88141 42.1464 6.86326C42.1563 6.84795 42.1604 6.83846 42.1555 6.84212C42.1506 6.84595 40.8992 6.85527 39.3751 6.86326ZM23.423 7.73804C23.3295 7.83676 23.2604 7.9175 23.2693 7.9175C23.288 7.9175 23.5163 7.68527 23.5726 7.6087C23.6402 7.51714 23.5971 7.55427 23.423 7.73804ZM21.7917 8.40874C21.8277 8.4154 21.8867 8.4154 21.9229 8.40874C21.959 8.40208 21.9294 8.39675 21.8573 8.39675C21.785 8.39675 21.7554 8.40208 21.7917 8.40874ZM30.1936 8.40874C30.2298 8.4154 30.2823 8.41523 30.3101 8.40824C30.3381 8.40125 30.3084 8.39592 30.2441 8.39609C30.1801 8.39642 30.1572 8.40208 30.1936 8.40874ZM68.2554 8.4169L68.1679 8.43804L68.2463 8.44137C68.2895 8.4432 68.3329 8.43221 68.3429 8.4169C68.3529 8.40158 68.3569 8.39059 68.352 8.39243C68.3469 8.39426 68.3035 8.40524 68.2554 8.4169ZM66.8406 9.9702C66.8646 9.98518 66.9161 9.99766 66.9547 9.99783C67.0484 9.9985 67.0248 9.98268 66.8989 9.96071C66.8271 9.94822 66.8098 9.95105 66.8406 9.9702ZM68.0366 9.97053L67.9346 9.99101L68.0275 9.99467C68.0788 9.99667 68.1289 9.98584 68.1387 9.97053C68.1486 9.95538 68.1527 9.94456 68.1478 9.94656C68.1429 9.94856 68.0928 9.95938 68.0366 9.97053Z" fill="#E40CC4"/>
<path fill-rule="evenodd" clip-rule="evenodd" d="M15.9736 0.0865687C16.2113 0.0912298 16.592 0.0912298 16.8195 0.0865687C17.0472 0.0819076 16.8528 0.0780789 16.3875 0.0780789C15.9221 0.0780789 15.7359 0.0819076 15.9736 0.0865687ZM19.487 0.0865687C19.7798 0.0910633 20.2589 0.0910633 20.5517 0.0865687C20.8446 0.0820741 20.6051 0.0784118 20.0195 0.0784118C19.4338 0.0784118 19.1942 0.0820741 19.487 0.0865687ZM55.8136 1.83464C55.8136 1.85128 55.7779 1.90655 55.7343 1.95732C55.6692 2.03306 55.6671 2.03972 55.7224 1.99444C55.801 1.92985 55.8547 1.84362 55.8306 1.82065C55.8211 1.81166 55.8136 1.81816 55.8136 1.83464ZM5.59924 3.28739C5.52853 3.44254 5.55058 3.4492 5.62917 3.29638C5.664 3.22863 5.68325 3.17319 5.67188 3.17319C5.6605 3.17319 5.62794 3.22463 5.59924 3.28739ZM12.5655 6.47473C12.5655 8.28306 12.569 9.02284 12.5732 8.11859C12.5774 7.21451 12.5774 5.73512 12.5732 4.83087C12.569 3.92679 12.5655 4.66657 12.5655 6.47473ZM53.8439 6.46091C53.8439 8.26158 53.8474 8.99404 53.8516 8.08879C53.856 7.18338 53.856 5.71015 53.8516 4.81489C53.8474 3.91963 53.8439 4.66024 53.8439 6.46091ZM70.0495 3.6398C70.0495 3.65295 70.0824 3.67792 70.1225 3.69523C70.1626 3.71271 70.1953 3.72237 70.1953 3.71688C70.1953 3.71122 70.1626 3.68625 70.1225 3.66128C70.0824 3.63631 70.0495 3.62665 70.0495 3.6398ZM57.4307 4.01252L57.3451 4.10258L57.4398 4.02118C57.5282 3.94527 57.5482 3.92229 57.5256 3.92229C57.5205 3.92229 57.4778 3.96291 57.4307 4.01252ZM70.2391 4.77594C70.2231 4.78709 70.1839 4.82754 70.1521 4.86566C70.1038 4.92359 70.1097 4.92159 70.1885 4.85351C70.2737 4.77993 70.2968 4.7538 70.2756 4.75513C70.2716 4.75529 70.2552 4.76462 70.2391 4.77594ZM39.8126 5.00433C39.8753 5.06542 39.9371 5.11536 39.9499 5.11536C39.9626 5.11536 39.9191 5.06542 39.8529 5.00433C39.7867 4.94324 39.725 4.8933 39.7157 4.8933C39.7064 4.8933 39.75 4.94324 39.8126 5.00433ZM20.3284 5.15698C20.2818 5.1951 20.2566 5.22623 20.2724 5.22623C20.2881 5.22623 20.3317 5.1951 20.3695 5.15698C20.4574 5.06792 20.4373 5.06809 20.3284 5.15698ZM63.7007 6.55796C63.7007 6.71827 63.7056 6.78386 63.7116 6.70362C63.7173 6.62355 63.7173 6.49254 63.7116 6.4123C63.7056 6.33223 63.7007 6.39782 63.7007 6.55796ZM23.9285 6.47473C23.9285 6.52051 23.9335 6.55796 23.9397 6.55796C23.946 6.55796 23.9568 6.52051 23.9638 6.47473C23.971 6.42895 23.9659 6.3915 23.9526 6.3915C23.9393 6.3915 23.9285 6.42895 23.9285 6.47473ZM4.27127 6.48988C4.25254 6.52883 4.23784 6.57561 4.23854 6.59409C4.23906 6.6124 4.25902 6.58493 4.28265 6.53299C4.33253 6.42379 4.32203 6.384 4.27127 6.48988ZM39.3751 6.86326L36.6038 6.87758L39.366 6.88424C41.1838 6.88873 42.1346 6.88141 42.1464 6.86326C42.1563 6.84795 42.1604 6.83846 42.1555 6.84212C42.1506 6.84595 40.8992 6.85527 39.3751 6.86326ZM23.423 7.73804C23.3295 7.83676 23.2604 7.9175 23.2693 7.9175C23.288 7.9175 23.5163 7.68527 23.5726 7.6087C23.6402 7.51714 23.5971 7.55427 23.423 7.73804ZM21.7917 8.40874C21.8277 8.4154 21.8867 8.4154 21.9229 8.40874C21.959 8.40208 21.9294 8.39675 21.8573 8.39675C21.785 8.39675 21.7554 8.40208 21.7917 8.40874ZM30.1936 8.40874C30.2298 8.4154 30.2823 8.41523 30.3101 8.40824C30.3381 8.40125 30.3084 8.39592 30.2441 8.39609C30.1801 8.39642 30.1572 8.40208 30.1936 8.40874ZM68.2554 8.4169L68.1679 8.43804L68.2463 8.44137C68.2895 8.4432 68.3329 8.43221 68.3429 8.4169C68.3529 8.40158 68.3569 8.39059 68.352 8.39243C68.3469 8.39426 68.3035 8.40524 68.2554 8.4169ZM66.8406 9.9702C66.8646 9.98518 66.9161 9.99766 66.9547 9.99783C67.0484 9.9985 67.0248 9.98268 66.8989 9.96071C66.8271 9.94822 66.8098 9.95105 66.8406 9.9702ZM68.0366 9.97053L67.9346 9.99101L68.0275 9.99467C68.0788 9.99667 68.1289 9.98584 68.1387 9.97053C68.1486 9.95538 68.1527 9.94456 68.1478 9.94656C68.1429 9.94856 68.0928 9.95938 68.0366 9.97053Z" fill="#E40CC4"/>
<path fill-rule="evenodd" clip-rule="evenodd" d="M15.9736 0.0865687C16.2113 0.0912298 16.592 0.0912298 16.8195 0.0865687C17.0472 0.0819076 16.8528 0.0780789 16.3875 0.0780789C15.9221 0.0780789 15.7359 0.0819076 15.9736 0.0865687ZM19.487 0.0865687C19.7798 0.0910633 20.2589 0.0910633 20.5517 0.0865687C20.8446 0.0820741 20.6051 0.0784118 20.0195 0.0784118C19.4338 0.0784118 19.1942 0.0820741 19.487 0.0865687ZM55.8136 1.83464C55.8136 1.85128 55.7779 1.90655 55.7343 1.95732C55.6692 2.03306 55.6671 2.03972 55.7224 1.99444C55.801 1.92985 55.8547 1.84362 55.8306 1.82065C55.8211 1.81166 55.8136 1.81816 55.8136 1.83464ZM5.59924 3.28739C5.52853 3.44254 5.55058 3.4492 5.62917 3.29638C5.664 3.22863 5.68325 3.17319 5.67188 3.17319C5.6605 3.17319 5.62794 3.22463 5.59924 3.28739ZM12.5655 6.47473C12.5655 8.28306 12.569 9.02284 12.5732 8.11859C12.5774 7.21451 12.5774 5.73512 12.5732 4.83087C12.569 3.92679 12.5655 4.66657 12.5655 6.47473ZM53.8439 6.46091C53.8439 8.26158 53.8474 8.99404 53.8516 8.08879C53.856 7.18338 53.856 5.71015 53.8516 4.81489C53.8474 3.91963 53.8439 4.66024 53.8439 6.46091ZM70.0495 3.6398C70.0495 3.65295 70.0824 3.67792 70.1225 3.69523C70.1626 3.71271 70.1953 3.72237 70.1953 3.71688C70.1953 3.71122 70.1626 3.68625 70.1225 3.66128C70.0824 3.63631 70.0495 3.62665 70.0495 3.6398ZM57.4307 4.01252L57.3451 4.10258L57.4398 4.02118C57.5282 3.94527 57.5482 3.92229 57.5256 3.92229C57.5205 3.92229 57.4778 3.96291 57.4307 4.01252ZM70.2391 4.77594C70.2231 4.78709 70.1839 4.82754 70.1521 4.86566C70.1038 4.92359 70.1097 4.92159 70.1885 4.85351C70.2737 4.77993 70.2968 4.7538 70.2756 4.75513C70.2716 4.75529 70.2552 4.76462 70.2391 4.77594ZM39.8126 5.00433C39.8753 5.06542 39.9371 5.11536 39.9499 5.11536C39.9626 5.11536 39.9191 5.06542 39.8529 5.00433C39.7867 4.94324 39.725 4.8933 39.7157 4.8933C39.7064 4.8933 39.75 4.94324 39.8126 5.00433ZM20.3284 5.15698C20.2818 5.1951 20.2566 5.22623 20.2724 5.22623C20.2881 5.22623 20.3317 5.1951 20.3695 5.15698C20.4574 5.06792 20.4373 5.06809 20.3284 5.15698ZM63.7007 6.55796C63.7007 6.71827 63.7056 6.78386 63.7116 6.70362C63.7173 6.62355 63.7173 6.49254 63.7116 6.4123C63.7056 6.33223 63.7007 6.39782 63.7007 6.55796ZM23.9285 6.47473C23.9285 6.52051 23.9335 6.55796 23.9397 6.55796C23.946 6.55796 23.9568 6.52051 23.9638 6.47473C23.971 6.42895 23.9659 6.3915 23.9526 6.3915C23.9393 6.3915 23.9285 6.42895 23.9285 6.47473ZM4.27127 6.48988C4.25254 6.52883 4.23784 6.57561 4.23854 6.59409C4.23906 6.6124 4.25902 6.58493 4.28265 6.53299C4.33253 6.42379 4.32203 6.384 4.27127 6.48988ZM39.3751 6.86326L36.6038 6.87758L39.366 6.88424C41.1838 6.88873 42.1346 6.88141 42.1464 6.86326C42.1563 6.84795 42.1604 6.83846 42.1555 6.84212C42.1506 6.84595 40.8992 6.85527 39.3751 6.86326ZM23.423 7.73804C23.3295 7.83676 23.2604 7.9175 23.2693 7.9175C23.288 7.9175 23.5163 7.68527 23.5726 7.6087C23.6402 7.51714 23.5971 7.55427 23.423 7.73804ZM21.7917 8.40874C21.8277 8.4154 21.8867 8.4154 21.9229 8.40874C21.959 8.40208 21.9294 8.39675 21.8573 8.39675C21.785 8.39675 21.7554 8.40208 21.7917 8.40874ZM30.1936 8.40874C30.2298 8.4154 30.2823 8.41523 30.3101 8.40824C30.3381 8.40125 30.3084 8.39592 30.2441 8.39609C30.1801 8.39642 30.1572 8.40208 30.1936 8.40874ZM68.2554 8.4169L68.1679 8.43804L68.2463 8.44137C68.2895 8.4432 68.3329 8.43221 68.3429 8.4169C68.3529 8.40158 68.3569 8.39059 68.352 8.39243C68.3469 8.39426 68.3035 8.40524 68.2554 8.4169ZM66.8406 9.9702C66.8646 9.98518 66.9161 9.99766 66.9547 9.99783C67.0484 9.9985 67.0248 9.98268 66.8989 9.96071C66.8271 9.94822 66.8098 9.95105 66.8406 9.9702ZM68.0366 9.97053L67.9346 9.99101L68.0275 9.99467C68.0788 9.99667 68.1289 9.98584 68.1387 9.97053C68.1486 9.95538 68.1527 9.94456 68.1478 9.94656C68.1429 9.94856 68.0928 9.95938 68.0366 9.97053Z" fill="#E40CC4"/>
<path fill-rule="evenodd" clip-rule="evenodd" d="M15.9736 0.0865687C16.2113 0.0912298 16.592 0.0912298 16.8195 0.0865687C17.0472 0.0819076 16.8528 0.0780789 16.3875 0.0780789C15.9221 0.0780789 15.7359 0.0819076 15.9736 0.0865687ZM19.487 0.0865687C19.7798 0.0910633 20.2589 0.0910633 20.5517 0.0865687C20.8446 0.0820741 20.6051 0.0784118 20.0195 0.0784118C19.4338 0.0784118 19.1942 0.0820741 19.487 0.0865687ZM55.8136 1.83464C55.8136 1.85128 55.7779 1.90655 55.7343 1.95732C55.6692 2.03306 55.6671 2.03972 55.7224 1.99444C55.801 1.92985 55.8547 1.84362 55.8306 1.82065C55.8211 1.81166 55.8136 1.81816 55.8136 1.83464ZM5.59924 3.28739C5.52853 3.44254 5.55058 3.4492 5.62917 3.29638C5.664 3.22863 5.68325 3.17319 5.67188 3.17319C5.6605 3.17319 5.62794 3.22463 5.59924 3.28739ZM12.5655 6.47473C12.5655 8.28306 12.569 9.02284 12.5732 8.11859C12.5774 7.21451 12.5774 5.73512 12.5732 4.83087C12.569 3.92679 12.5655 4.66657 12.5655 6.47473ZM53.8439 6.46091C53.8439 8.26158 53.8474 8.99404 53.8516 8.08879C53.856 7.18338 53.856 5.71015 53.8516 4.81489C53.8474 3.91963 53.8439 4.66024 53.8439 6.46091ZM70.0495 3.6398C70.0495 3.65295 70.0824 3.67792 70.1225 3.69523C70.1626 3.71271 70.1953 3.72237 70.1953 3.71688C70.1953 3.71122 70.1626 3.68625 70.1225 3.66128C70.0824 3.63631 70.0495 3.62665 70.0495 3.6398ZM57.4307 4.01252L57.3451 4.10258L57.4398 4.02118C57.5282 3.94527 57.5482 3.92229 57.5256 3.92229C57.5205 3.92229 57.4778 3.96291 57.4307 4.01252ZM70.2391 4.77594C70.2231 4.78709 70.1839 4.82754 70.1521 4.86566C70.1038 4.92359 70.1097 4.92159 70.1885 4.85351C70.2737 4.77993 70.2968 4.7538 70.2756 4.75513C70.2716 4.75529 70.2552 4.76462 70.2391 4.77594ZM39.8126 5.00433C39.8753 5.06542 39.9371 5.11536 39.9499 5.11536C39.9626 5.11536 39.9191 5.06542 39.8529 5.00433C39.7867 4.94324 39.725 4.8933 39.7157 4.8933C39.7064 4.8933 39.75 4.94324 39.8126 5.00433ZM20.3284 5.15698C20.2818 5.1951 20.2566 5.22623 20.2724 5.22623C20.2881 5.22623 20.3317 5.1951 20.3695 5.15698C20.4574 5.06792 20.4373 5.06809 20.3284 5.15698ZM63.7007 6.55796C63.7007 6.71827 63.7056 6.78386 63.7116 6.70362C63.7173 6.62355 63.7173 6.49254 63.7116 6.4123C63.7056 6.33223 63.7007 6.39782 63.7007 6.55796ZM23.9285 6.47473C23.9285 6.52051 23.9335 6.55796 23.9397 6.55796C23.946 6.55796 23.9568 6.52051 23.9638 6.47473C23.971 6.42895 23.9659 6.3915 23.9526 6.3915C23.9393 6.3915 23.9285 6.42895 23.9285 6.47473ZM4.27127 6.48988C4.25254 6.52883 4.23784 6.57561 4.23854 6.59409C4.23906 6.6124 4.25902 6.58493 4.28265 6.53299C4.33253 6.42379 4.32203 6.384 4.27127 6.48988ZM39.3751 6.86326L36.6038 6.87758L39.366 6.88424C41.1838 6.88873 42.1346 6.88141 42.1464 6.86326C42.1563 6.84795 42.1604 6.83846 42.1555 6.84212C42.1506 6.84595 40.8992 6.85527 39.3751 6.86326ZM23.423 7.73804C23.3295 7.83676 23.2604 7.9175 23.2693 7.9175C23.288 7.9175 23.5163 7.68527 23.5726 7.6087C23.6402 7.51714 23.5971 7.55427 23.423 7.73804ZM21.7917 8.40874C21.8277 8.4154 21.8867 8.4154 21.9229 8.40874C21.959 8.40208 21.9294 8.39675 21.8573 8.39675C21.785 8.39675 21.7554 8.40208 21.7917 8.40874ZM30.1936 8.40874C30.2298 8.4154 30.2823 8.41523 30.3101 8.40824C30.3381 8.40125 30.3084 8.39592 30.2441 8.39609C30.1801 8.39642 30.1572 8.40208 30.1936 8.40874ZM68.2554 8.4169L68.1679 8.43804L68.2463 8.44137C68.2895 8.4432 68.3329 8.43221 68.3429 8.4169C68.3529 8.40158 68.3569 8.39059 68.352 8.39243C68.3469 8.39426 68.3035 8.40524 68.2554 8.4169ZM66.8406 9.9702C66.8646 9.98518 66.9161 9.99766 66.9547 9.99783C67.0484 9.9985 67.0248 9.98268 66.8989 9.96071C66.8271 9.94822 66.8098 9.95105 66.8406 9.9702ZM68.0366 9.97053L67.9346 9.99101L68.0275 9.99467C68.0788 9.99667 68.1289 9.98584 68.1387 9.97053C68.1486 9.95538 68.1527 9.94456 68.1478 9.94656C68.1429 9.94856 68.0928 9.95938 68.0366 9.97053Z" fill="#E40CC4"/>
</svg>
