<svg width="70" height="10" viewBox="0 0 70 10" fill="none" xmlns="http://www.w3.org/2000/svg">
<g id="YM" clip-path="url(#clip0_4032_363)">
<g id="Clip path group">
<mask id="mask0_4032_363" style="mask-type:luminance" maskUnits="userSpaceOnUse" x="0" y="0" width="11" height="10">
<g id="clip0_9407_22851">
<path id="Vector" d="M0.75 0H10.8971V10H0.75V0Z" fill="white"/>
</g>
</mask>
<g mask="url(#mask0_4032_363)">
<g id="Group">
<path id="Vector_2" d="M5.82353 10C8.62556 10 10.8971 7.76142 10.8971 5C10.8971 2.23858 8.62556 0 5.82353 0C3.0215 0 0.75 2.23858 0.75 5C0.75 7.76142 3.0215 10 5.82353 10Z" fill="#B3B3B3"/>
<path id="Vector_3" d="M6.64554 8.14937V2.79604H6.0083C5.54898 2.79604 5.2006 2.89204 4.96383 3.08438C4.72707 3.26971 4.60868 3.51671 4.60868 3.82571C4.60868 4.05904 4.65029 4.25804 4.73383 4.42271C4.81737 4.58737 4.93948 4.73837 5.09946 4.87571C5.25979 5.01304 5.46171 5.16404 5.70558 5.32871L6.31136 5.73004L4.53562 8.14971H3.19824L4.89077 5.88471L5.68461 6.58471L5.05786 6.19338C4.7427 5.99163 4.44249 5.76807 4.15951 5.52437C3.90854 5.30438 3.7171 5.06437 3.58485 4.80371C3.45259 4.54271 3.3863 4.23737 3.3863 3.88737C3.3863 3.28337 3.60582 2.79604 4.04451 2.42537C4.4903 2.04804 5.1414 1.85938 5.99782 1.85938H7.88855V8.14937H6.64554Z" fill="white"/>
</g>
</g>
</g>
<path id="Vector_4" d="M16.8348 10C14.0359 10 11.7612 7.767 11.7612 5.009C11.7612 2.25067 14.0359 0 16.8348 0C19.6333 0 21.9083 2.25067 21.9083 5.009C21.9083 7.767 19.6333 10 16.8348 10Z" fill="#B3B3B3"/>
<path id="Vector_5" d="M16.0492 0.675781L10.3892 9.37911H12.9838L16.2535 4.36245L16.1737 4.32678L15.2672 7.91678L17.1863 8.25011L19.1589 5.80678L19.052 5.75445L18.3857 8.52978L22.5673 7.74445L21.7143 6.35978L20.2071 6.69978L20.385 6.90145L21.0869 4.00311L19.4518 2.92578L17.3108 5.57911L17.4174 5.63178L18.2968 2.15511L16.0492 0.675781Z" fill="#E6E6E6"/>
<path id="Vector_6" d="M16.0492 0.675781L10.3892 9.37911H12.9838L16.2535 4.36245L16.1737 4.32678L15.2672 7.91678L17.1863 8.25011L19.1589 5.80678L19.052 5.75445L18.3857 8.52978L20.0667 8.21411L21.0869 4.00311L19.4518 2.92578L17.3108 5.57911L17.4174 5.63178L18.2968 2.15511L16.0492 0.675781Z" fill="#E6E6E6"/>
<path id="Vector_7" d="M23.8534 8.14971L27.0081 1.85971H29.4106L29.9017 5.68937L32.3356 1.85938H34.7175V8.14971H32.3881V4.77304L30.2254 8.14971H27.896L27.4471 4.74204L25.7336 8.14971H23.8534ZM41.8732 6.90404C41.8732 7.11704 41.8769 7.32637 41.8837 7.53204C41.8908 7.73804 41.9046 7.94037 41.9256 8.13937H39.7629C39.7116 8.04053 39.6697 7.9372 39.6378 7.83071C39.5952 7.68975 39.5672 7.5449 39.5542 7.39837C39.3313 7.65904 39.0493 7.87504 38.708 8.04671C38.3738 8.21171 37.8966 8.29404 37.2769 8.29404C36.6502 8.29404 36.1486 8.14971 35.7724 7.86171C35.4034 7.57337 35.2191 7.18904 35.2191 6.70837C35.2191 6.26237 35.3476 5.91937 35.6054 5.67904C35.8702 5.43204 36.2808 5.26038 36.8382 5.16438C37.3953 5.06104 38.109 5.00971 38.9796 5.00971H39.5228V4.89637C39.5228 4.67704 39.4288 4.50871 39.2407 4.39204C39.0526 4.27537 38.7009 4.21704 38.1857 4.21704C37.6774 4.21704 37.2038 4.28237 36.7648 4.41271C36.3332 4.53604 35.9815 4.65971 35.7099 4.78337V3.40371C36.0163 3.29371 36.4273 3.18404 36.9427 3.07437C37.465 2.95771 38.0603 2.89938 38.729 2.89938C39.4044 2.89938 39.9753 2.96104 40.4421 3.08471C40.9089 3.20138 41.264 3.40371 41.5076 3.69204C41.7514 3.97337 41.8732 4.36471 41.8732 4.86571V6.90404ZM42.5835 3.05404H44.7462L44.8713 3.92871C45.1361 3.58571 45.4527 3.33537 45.8221 3.17737C46.1911 3.01937 46.6159 2.94071 47.0966 2.94071C47.6398 2.94071 48.1272 3.03671 48.5591 3.22871C48.9814 3.41299 49.338 3.71791 49.5826 4.10404C49.8336 4.49504 49.9587 4.98937 49.9587 5.58637C49.9587 6.18337 49.8336 6.68104 49.5826 7.07904C49.3391 7.47037 48.9978 7.76571 48.5591 7.96437C48.1201 8.16371 47.6188 8.26304 47.0546 8.26304C46.6508 8.26558 46.2501 8.19215 45.8742 8.04671C45.5119 7.89604 45.1987 7.65904 44.9342 7.33671V9.47804H42.5835V3.05371V3.05404ZM56.7697 5.58637C56.7697 5.07837 56.9091 4.62537 57.1878 4.22737C57.4733 3.82937 57.8771 3.51737 58.3994 3.29071C58.9287 3.05737 59.5521 2.94071 60.2695 2.94071C61.0146 2.94071 61.638 3.06737 62.1392 3.32138C62.6476 3.57537 63.0027 3.93571 63.2047 4.40237C63.4137 4.86904 63.4414 5.42171 63.2882 6.06004H59.1621C59.2456 6.35504 59.4303 6.57804 59.7158 6.72904C60.0083 6.87337 60.4399 6.94537 61.0109 6.94537C61.408 6.94537 61.777 6.91104 62.1183 6.84204C62.4394 6.77213 62.7567 6.68636 63.069 6.58504V7.81004C62.7694 7.94737 62.4352 8.05704 62.0662 8.13937C61.7039 8.22171 61.227 8.26304 60.6351 8.26304C59.3326 8.26304 58.3611 8.02637 57.7205 7.55271C57.0867 7.07237 56.7697 6.41704 56.7697 5.58637ZM63.4868 3.05371H69.4519V4.37171H67.5923V8.13937H65.2419V4.37171H63.4868V3.05371ZM50.4079 3.05371H52.7583V5.35971L54.9835 3.05371H57.0102L54.9416 5.17437L57.4384 8.13937H54.5969L52.7583 5.89504V8.13937H50.4079V3.05371ZM60.28 4.09371C59.9593 4.09371 59.7053 4.18637 59.5172 4.37171C59.3292 4.55004 59.2074 4.78004 59.1516 5.06138H61.2199C61.2131 4.78004 61.1364 4.55004 60.9902 4.37137C60.8438 4.18637 60.607 4.09371 60.28 4.09371ZM47.5562 5.58637C47.5562 5.17437 47.4412 4.84837 47.2112 4.60837C46.9887 4.36137 46.668 4.23771 46.2503 4.23771C45.8674 4.23771 45.5468 4.35437 45.2894 4.58771C45.0316 4.81437 44.9028 5.14704 44.9028 5.58637C44.9028 6.02571 45.0279 6.36538 45.2789 6.60571C45.5366 6.83904 45.8603 6.95571 46.2503 6.95571C46.6822 6.95571 47.0059 6.83204 47.2217 6.58504C47.4446 6.33804 47.5562 6.00504 47.5562 5.58637ZM39.5228 5.94637H38.9901C38.4817 5.94637 38.1161 5.98804 37.8932 6.07037C37.6774 6.15271 37.5695 6.31037 37.5695 6.54371C37.5695 6.74271 37.6392 6.89037 37.7782 6.98637C37.9246 7.07571 38.0985 7.12037 38.3007 7.12037C38.6072 7.12037 38.8578 7.06537 39.0526 6.95571C39.2546 6.83904 39.4115 6.70504 39.5228 6.55404V5.94637Z" fill="#B3B3B3"/>
</g>
<defs>
<clipPath id="clip0_4032_363">
<rect width="69" height="10" fill="white" transform="translate(0.75)"/>
</clipPath>
</defs>
</svg>
